<?xml version="1.0" encoding="UTF-8"?>
<svg id="Capa_1" data-name="Capa 1" xmlns="http://www.w3.org/2000/svg" xmlns:xlink="http://www.w3.org/1999/xlink" viewBox="0 0 841.89 595.28">
  <defs>
    <style>
      .cls-1 {
        fill: url(#Degradado_sin_nombre_215);
      }

      .cls-1, .cls-2, .cls-3, .cls-4, .cls-5, .cls-6, .cls-7, .cls-8, .cls-9, .cls-10, .cls-11, .cls-12, .cls-13, .cls-14, .cls-15, .cls-16, .cls-17, .cls-18, .cls-19, .cls-20, .cls-21, .cls-22, .cls-23, .cls-24 {
        stroke-width: 0px;
      }

      .cls-2 {
        fill: #aaa7b8;
      }

      .cls-3 {
        fill: url(#Degradado_sin_nombre_218);
      }

      .cls-4 {
        fill: #6d7288;
      }

      .cls-5 {
        fill: #161424;
      }

      .cls-6 {
        fill: url(#Degradado_sin_nombre_217);
      }

      .cls-7 {
        fill: #e8e8ef;
      }

      .cls-8 {
        fill: #1b1f2b;
      }

      .cls-9 {
        fill: #807882;
      }

      .cls-10 {
        fill: #2f2d40;
      }

      .cls-11 {
        fill: #cbcad6;
      }

      .cls-12 {
        fill: #393b51;
      }

      .cls-13 {
        fill: url(#Degradado_sin_nombre_214);
      }

      .cls-14 {
        fill: #9998ae;
      }

      .cls-15 {
        fill: #54516c;
      }

      .cls-16 {
        fill: #89899b;
      }

      .cls-17 {
        fill: #2b303e;
      }

      .cls-18 {
        fill: #7e7a92;
      }

      .cls-19 {
        fill: #464a5c;
      }

      .cls-20 {
        fill: #69657d;
      }

      .cls-21 {
        fill: #605d6b;
      }

      .cls-22 {
        fill: #766d7e;
      }

      .cls-23 {
        fill: url(#Degradado_sin_nombre_213);
      }

      .cls-24 {
        fill: url(#Degradado_sin_nombre_216);
      }
    </style>
    <linearGradient id="Degradado_sin_nombre_213" data-name="Degradado sin nombre 213" x1="493.53" y1="322.71" x2="526.69" y2="377.57" gradientUnits="userSpaceOnUse">
      <stop offset="0" stop-color="#1f1b2c"/>
      <stop offset="1" stop-color="#4b4e5c"/>
    </linearGradient>
    <linearGradient id="Degradado_sin_nombre_215" data-name="Degradado sin nombre 215" x1="164.86" y1="207.62" x2="182.12" y2="236.06" gradientUnits="userSpaceOnUse">
      <stop offset="0" stop-color="#1f1d2d"/>
      <stop offset="1" stop-color="#5d5f6d"/>
    </linearGradient>
    <linearGradient id="Degradado_sin_nombre_217" data-name="Degradado sin nombre 217" x1="392.14" y1="346.87" x2="416.5" y2="378.29" gradientUnits="userSpaceOnUse">
      <stop offset="0" stop-color="#201c30"/>
      <stop offset="1" stop-color="#505464"/>
    </linearGradient>
    <linearGradient id="Degradado_sin_nombre_214" data-name="Degradado sin nombre 214" x1="423.22" y1="162.14" x2="486.68" y2="266.96" gradientUnits="userSpaceOnUse">
      <stop offset=".15" stop-color="#1c1d2a"/>
      <stop offset="1" stop-color="#8d8d99"/>
    </linearGradient>
    <linearGradient id="Degradado_sin_nombre_218" data-name="Degradado sin nombre 218" x1="312.28" y1="369.45" x2="329.62" y2="390.91" gradientUnits="userSpaceOnUse">
      <stop offset="0" stop-color="#201c2e"/>
      <stop offset="1" stop-color="#595d6e"/>
    </linearGradient>
    <linearGradient id="Degradado_sin_nombre_216" data-name="Degradado sin nombre 216" x1="197.71" y1="313.24" x2="211.43" y2="331.35" gradientUnits="userSpaceOnUse">
      <stop offset="0" stop-color="#1f1b2c"/>
      <stop offset="1" stop-color="#3e3e4f"/>
    </linearGradient>
  </defs>
  <path class="cls-5" d="M648.15,506.21c-5.2,5.75-12.24,9.7-17.85,15.01,1.71,12.86-37.69,29.63-51.53,29.62-4.57,3.77-10.81,9.37-15.82,12.17-12.47,6.97-25.37,8.38-34.89,12.17-1.96.78-3.76,1.61-5.68,2.43-4.36,1.87-14.52,9.42-21.91,11.36-18.91,1.18-37.87.94-56.8.81-1.72-3.92-5.81-5.71-8.93-8.11-1.13-.87-2.07-1.6-3.25-2.43-1.9-1.35-3.76-2.72-5.68-4.06-5.25-3.65-10.88-7.02-16.23-10.55-4.7-3.1-10.1-8.19-14.2-12.17-6.62-2.73-44.95-14.92-47.06-16.23-2.06-1.28-1.81-4.35-2.03-4.46-3.89-2.05-35.41-10.27-41.79-8.52-7.52-4.24-15.4-7.68-22.31-12.98.96-7.47,5.28-10.71,3.25-19.88,1.57-4.09,13.76-1.57,7.3-12.98-2.86-5.05-6.13-1.34-6.49-4.06-.21-1.56,22.6-16.8,26.37-16.63,9.72.86,32.58-2.61,36.52-2.43,18.46.81,7.88,8.28,9.33,15.82.25,1.32,8.41,18.97,16.63,19.88,1.86.21,27.75-8.24,33.27-9.74,17.71,2.06,29.22-6.1,45.44,6.49h5.68c1.66-.76,2.98-2.38,4.46-3.25,3.18-2.39,7.07-3.28,10.55-4.87,21.42,9.7,23.67,4.47,32.86,2.43,3.67-.81,8.81-.63,15.42-3.25.32-.13,2.28-3.91,4.87-4.87,5.15-1.91,14.49-4.03,20.29-5.68q17.85-8.11,35.7-16.23c6.73.39.19,9.24,8.93,7.3,2.37-.53,23.98-16.32,27.59-21.1,7.84,5.78,14.09.34,15.42.81,2.63.94-1.3,6.16,5.27,6.9-4.71,10.71,6.61,2.37,8.11,10.55.42,2.26-1.86,35.32,4.06,45.44-2.08,1.32-3.31,3.55-4.87,5.27Z"/>
  <path class="cls-12" d="M672.5,433.99c-1.32,2.32-3.99-4.52-4.06-5.27-.62-6.5,14.92-57.9,17.85-70.6.04-.17,2.07-.74,2.43-2.43.75-3.53.56-12.09.81-16.23.33-5.39,3.06-5.27.81-11.77,2.29-25.75-28.46-24.56-10.55-62.89.72-8.54-19.11-16.87-1.62-30.02-10.63-9.07,2.82-20.24-10.14-28,1.99,3.56-3.77,18.76-6.49,19.47-2.93.77-1.51-3.38-5.27-3.65,2.41-4.84-.59-4.04-.81-5.68-1.35-9.96.76-15.31,7.71-22.31,21.7,9.11,5.38-27.87-15.01-21.91,4.04-10.85-9.27-5.55-10.14-5.68-1.82-.26-9.03-9.59-1.22,4.06-1.52-.07-7.54.79-8.52,2.43-6.96-4.52-2.33.16-1.22,14.61q-5.27.81-10.55,1.62c-1.22-3.12-3.2-6.04-4.87-8.93-2.5-4.31-5.62-7.71-8.93-11.36.1.03-.06-1.43,2.03-.81,3.65,1.07,4.54,6.46,10.95,2.84q-5.27-5.48-10.55-10.95c10.18,1.26,26.83-1.42,21.5-7.3,13.12-3.41,8.04.37,9.74,1.62,1.19.88,2.27-2.4,2.43-2.43,3.37-.61,18.6,2.28,19.88-1.22.13-.34-2.52-.87-2.43-6.9,35.67,18.56,33.01,51.56,32.46,87.23,8.5,16.79,2.67,27.59,4.06,35.7.59,3.44,14.01,22.53,7.3,54.37,5.2,16.87.17,12.22,0,12.98-.12.57,2.44,9.73,2.43,11.36-.08,14.11-9.53,25.16-9.74,39.76-14.8,25.8-8.88,27.33-9.74,32.46-.41,2.45-10.18,14.95-10.55,15.82Z"/>
  <path class="cls-19" d="M420.13,65.59c-.51,14.15-1.29,8.24-2.84,9.74-2,1.93-9.98,9.15-4.06,9.74,3.08.31,51.91-16.74,58.42-20.29,5.74,1.8,5.78,0,6.09,0,1.14.03,7.68,1.74,11.36,2.43-1.67,1.65-.83,7.91-2.03,8.93-1.95,1.65-36.43,2.73-38.14,8.11-15.21-4.88-12.93,2.94-13.79,3.25-3.33,1.17-13.68-2.14-4.46,2.84-5.47.39-5.56,4.92-10.55,6.9-6.7,2.66-17.65,2.35-24.34,6.49-.03-.08-1.54.27-1.62-.41-.69-5.37,6.41-2.71,8.52-3.65,1.74-.78,8.16-8.83-.41-8.11,7.03-7.23,2.42-7.62,2.43-8.11.12-4.33,1.73-4.2,1.62-4.46-.51-1.27-2.93,1.33-3.25,0-.72-3.01,13.5-6.71,10.55-9.74,2.6-2.24,1.61.42,4.06-2.03.77-.77,2.34-1.51,2.43-1.62Z"/>
  <path class="cls-19" d="M612.45,119.15c2.52,1.52,4.16,3.45,6.49,4.87-4.11,2.12,2.83,5.89.41,7.3-16.6,2.54-23.62-12.89-37.73.81-5.23-1.75,7.02-7.48,6.49-8.52-14.93-6.68-28.53-6.59-20.69-10.95,9.77-5.44,33.13,12.09,46.25,8.93l-1.22-2.43Z"/>
  <path class="cls-12" d="M129.63,316.33c-1.24,1.65-8.19,10.35-7.3,11.77q6.9-2.64,13.79-5.27h.81c-.21.63-.55,1.01-.81,1.62-.21.49-3.37,4.83-5.68,8.93-2,3.55-3.49,7.14-5.68,10.55-7.46-3.7-10.48-11.27-12.98-18.66,3.58,3.84,2.12,2.12,4.87.81,2.45-1.17,8.34-7.08,9.74-9.33,2.99-4.82.64-6.21.81-6.49.6-.99,2.34-1.27,3.25-2.84,7.29,4.31,4.64,1.64-.81,8.93Z"/>
  <path class="cls-20" d="M206.72,140.25c-11.12,11.3-19.09,25.69-28.4,38.14-1.32,1.76-7.98,9.79-8.93,10.55-.14.11-1.25-.17-3.25,1.62,10.65-20.77,19.38-38.46,40.57-50.31Z"/>
  <path class="cls-19" d="M564.57,95.62c-19.75-2.24-20.56-8.28-22.31-9.74-1.14-.94-2.27,2.46-3.65-1.62,1.96-10.37,17.83,6.08,25.97,11.36Z"/>
  <g>
    <path class="cls-17" d="M433.93,20.96c5.21,3.65-1.55,4.48-.41,11.36,4.84.13,24.31,8.01,20.69,3.25,10.52,8.67,13.94,8,23.53,29.21-.3,0-.34,1.8-6.09,0-6.51,3.54-55.34,20.59-58.42,20.29-5.92-.59,2.06-7.81,4.06-9.74,1.55-1.5,2.33,4.41,2.84-9.74,5.82-7.38-1.07-5.13,0-6.9,9.46-3.8.16-6.71,0-7.3-.33-1.25,12.28-16.78,12.17-17.85-.51-4.95-6.99,4.7-8.11.81,1.15-1.69,1.14-7.44.81-9.33-2.5-14.59-10.49-13.52-8.93-17.04,5.94,1.36,11.7,4.92,13.39,11.36,1.57.7,3.02.55,4.46,1.62Z"/>
    <path class="cls-19" d="M454.21,35.57c3.62,4.76-15.86-3.12-20.69-3.25-1.15-6.88,5.61-7.71.41-11.36,6.61,4.91,13.9,9.34,20.29,14.61Z"/>
  </g>
  <path class="cls-20" d="M119.9,288.74c-.08,2.99-8.12,14.7-12.17,13.79-.11-3.2-.12-6.54,0-9.74l12.17-4.06Z"/>
  <path class="cls-10" d="M119.9,287.93v.81l-12.17,4.06c.15-4.02,1.07-8.91,1.62-12.98,6.24,4.13,1.19,8.93,10.55,8.11Z"/>
  <path class="cls-12" d="M395.79,399.91c16.3,4.95,29.78,2.16,42.2-9.74.07,1.03,5.75.91,6.49.81-3.2,5.1-8.07,6.16-8.52,6.49-13.48,9.78-26.21,21.33-36.92,34.08-4.18-2.78-20.1,13.72-22.72,10.14,6.96-10.37,15.13-19.93,21.91-30.43.16-.25,2.76-2.93,4.06-4.46-7.84-4.53-19.82-1.65-29.62-2.84-6.04,1.33-9.66,17.13-27.18,17.04,1.7-3.14,6.19-8.6,4.46-9.74q-13.39,5.68-26.78,11.36c-2.15-1.21,2.67-5.38,2.84-5.68,13.51-1.34,6.59-4.61,6.49-5.27-.11-.79,11.43-8.46,12.98-9.33,8.13-4.56,8.66-3.76,17.04-6.49,2.41-.79,4.89-1.71,7.3-2.43,3.32-1,6.49-1.96,9.33-4.06,3.48,5.32,10.66,8.74,16.63,10.55Z"/>
  <path class="cls-16" d="M512.64,117.53c5.46,5.75,6.85.26,12.17-2.43.94-.48,1.49-1.16,2.43-1.62,11.37,5.33,2.29,2.33-2.43,13.39l9.74,2.43c-8.27-.86-11.79,7.29-17.85,11.77-2.11-.12-1.94.31-.41,1.62,2.7-.61,5.22.48,7.71.81-15.59-.34-19.73,6.1-30.84,9.74-7.29,2.39.03,1.37-6.09-3.25-5.73-4.32-26.4-8.8-33.68-8.93,5.6-8.61,7.8-8.2,17.85-9.74-7.17,6.77-3.48,5.26,7.71,6.49,13.5-21.58,17.4-26.16,6.09,1.22q9.13,1.42,18.26,2.84c-.31-4.86-.72-9.77-1.22-14.61,2.72.67,3.62-.46,5.68-1.62.43-.24,1.84,1.9,1.62-.41-.23-2.47-9.28-16.59,1.22-2.84.85-.39-1.62-7.89-2.03-8.93,2.78-.26,3.1,3.05,4.06,4.06Z"/>
  <path class="cls-20" d="M317.89,357.72c-1.53,5.1-1.69,13.6,0,18.66-1.71.26-.31,3.81-.81,4.87-.35.74-6.65,3.46-12.17,10.55-11.98.15-2.98.7-3.25,2.03-.19.97-9.87,14.19-11.36,16.23-2.76,3.78-4.51-1.36-3.25,4.46-2.53.6-4.84-6.43-4.06-8.52.21-.56,7.8-4.26,4.87-9.74-.48-.9-5.2,2.58-5.68,2.84-6.67,3.57-7.83,3.29-13.79,5.68-.52-.05-1.11-.06-1.62,0,.95-5.85-20.92,4.05-22.72,5.68-3.02,2.74-8.27,16.78-3.25-3.25,3.65-1.17,35.51-11.25,19.88-9.74-6.36.62-21.4,10.54-19.07.81,2.09-1.17,2.32-3.79,4.06-6.49,5.5.13,6.68,1.09,12.98,0-2.14,2.4,7.48,3.26,5.68,0,.09.1,1.5.69,1.62.81,4.08,3.94,3.51,1.43,4.06,1.62.37.14,1.16-.12,1.62,0,.18.05-.42,2.13,2.84,2.43,9.91.91,13.02-4.79,21.91-6.49-.16-4.62,5.36-12.15,8.52-17.04,2.91-4.5,9.66-15.56,12.98-15.42Z"/>
  <path class="cls-12" d="M480.99,320.39c-9.85,5.75-19.06,12.62-29.21,17.85,7.3-14.35,14.82-28.63,23.53-42.2,9.04-1.25,30.36-9.26,38.14-14.61.52,4.24-4.63,4.41-10.55,10.95-6.27,10.6-9.39,9.89-9.74,10.55-.26.48,1.27,3.71,0,5.68-.46.71-7.66,3.46-12.17,11.77Z"/>
  <path class="cls-12" d="M245.67,391.8c-1.74,2.7-1.97,5.32-4.06,6.49-9.03,4.73-28.2,11.57-23.53,15.42-9.06,1.87-6.92,2.38-7.3,2.43-7.45,1.06-16.17-.03-17.85-8.52.7-1.73,16.78-4.84,18.26-8.52,2.01,4.65-1.73,3.9,2.84,7.3,3.52,2.62,6.83-5.69,9.33-2.43,10.93-6.59,9.62-9.24,10.14-9.74,6.11-5.79,11.37-9.49,16.23-14.2,3.17-3.07,5.65-7.83,8.93-10.95,2.61-2.49,5.48-4.84,8.11-7.3,9.57,7.25,5.37,6.45,5.68,6.9.39.56,3.21.41,3.25,1.62.06,1.89-26.08,13.12-27.18,14.2-2.19,2.15-2.63,6.97-2.84,7.3Z"/>
  <path class="cls-17" d="M471.26,369.89c-6.91,4.58-14.54,17.69-21.1,20.29-.27.11-4.8.7-5.68.81-.74.1-6.42.22-6.49-.81.48-.46,1.19-1.15,1.62-1.62.97.6,3.79.31,4.46,0,9.9-4.6,8.05-8.04,8.52-8.52,15.62-15.85,20.15-23.45-3.25-9.33.25-1.63.94-2.42.81-4.87,5.94-7.91,6.53-4.49,6.9-4.87,8.43-8.73,4.15-21.34,13.39-28.4,3.83.46-3.14,2.86-2.43,19.07.1,2.24,2.54,16.11,3.25,18.26Z"/>
  <path class="cls-18" d="M555.65,123.21c-5.18-.37-1.31,3.75-3.65,5.68-3.29,2.71-6.09-.82-6.49-.81-.81.02-5.27,7.09-5.68,7.3-.66.34-11.81-1.64-10.95,1.22,6.45-.16-1.08,5.42-12.17,4.46,6.06-4.47,9.59-12.62,17.85-11.77l-9.74-2.43c4.72-11.06,13.81-8.06,2.43-13.39,15.45-7.6,12.74,4.46,13.39,15.42q4.87-4.87,9.74-9.74c4.92.74,3.92,2.41,5.27,4.06Z"/>
  <path class="cls-12" d="M475.31,376.38c2.09,3.52,5.96,9.68,9.74,11.36.01,3.1-11.09,8.88-16.63,12.17-1.23,1.1.98,2.08.41,3.25-8.53,2.51-9.54,10.37-14.61,2.84,5.39-6.28,16.23-26.49,18.66-29.21.65-.72,1.59-.34,2.43-.41Z"/>
  <path class="cls-17" d="M398.22,411.27c-9.74-.42-6.88-1.6-7.3-1.62-3.04-.2-6.03-.27-8.93.81-4.93-4.67-9.24,4.57-12.58-.81-1.31,1.04.92,2.02.41,2.84-.98,1.56-28.88,23.71-29.21,16.23-.03-.72,4.16-6.4,4.87-7.71,17.53.09,21.15-15.71,27.18-17.04,9.8,1.19,21.78-1.69,29.62,2.84-1.3,1.54-3.89,4.21-4.06,4.46Z"/>
  <path class="cls-19" d="M334.12,393.42c1.53-.1,3.22.24,5.68,0,1.06,3.74-4.69,2.57-5.68,3.65-.21.23-.42,3.69-1.62,6.09-.56,1.11-1.03,2.12-1.62,3.25-6.09,9.62-22.62,19.49-24.75,18.66-3.93-1.53,1.03-3.84,1.22-4.06,7.39-8.61,14.72-16.21,19.47-26.78,2.41-.14,4.95-.65,7.3-.81Z"/>
  <path class="cls-17" d="M412.83,422.63c24.14,6.06-6.49,21.81-17.45,17.04-16.88,21.77-11.64,11.9,1.22-4.06l.41,1.62c3.9-6.63,10.09-10.14,15.82-14.61Z"/>
  <path class="cls-20" d="M450.16,390.17l-15.42,11.77c18.25,7.02,11.36-.48-6.9,9.33-4.04,2.17-10.97,8.21-15.01,11.36-5.73,4.46-11.92,7.97-15.82,14.61l-.41-1.62c2.79-3.46,2.28-3.88,2.43-4.06,10.72-12.75,23.45-24.3,36.92-34.08.45-.33,5.32-1.39,8.52-6.49.88-.11,5.41-.71,5.68-.81Z"/>
  <path class="cls-12" d="M562.14,157.29h.81c-.74,1.1-8.92,20.1-11.36,23.94-24.03,14.96-.41-6.92,6.49-32.46,2.79,1.44.43,10.47,4.06,8.52Z"/>
  <path class="cls-19" d="M240.8,407.21c-7.53,2.42-14.96,4.89-22.72,6.49-4.67-3.85,14.5-10.69,23.53-15.42-2.33,9.73,12.71-.19,19.07-.81,15.63-1.52-16.23,8.57-19.88,9.74Z"/>
  <path class="cls-20" d="M316.27,403.16c-12.83,10.89-32.93,11.99-30.43,23.53q-1.01-5.68-2.03-11.36c1.11-.19.66,1.68,1.22,1.62.13-.01,1.49-1.28,2.03-1.62,4.84-3.1,4.19-4.69,4.46-4.87,2.06-1.32,18.97-10.12,23.13-12.17,5.43,5.03,2.06,3.76,1.62,4.87Z"/>
  <path class="cls-17" d="M283,415.33c-.15,1.36-.11,3.06-2.03,3.25-27.39-4.6,1.23-12.34-12.58-13.79,5.97-2.39,7.12-2.11,13.79-5.68,4.28-.24-4.37,6.49-4.06,6.9.38.51,6.03-1.29,4.87,9.33Z"/>
  <g>
    <path class="cls-23" d="M554.02,329.31c1.9,5.22,2.93,17.92,2.43,23.53-1.37,15.54-12.42,30.32-27.59,34.89-9.15,2.76-35.4,3.75-43.82,0-3.78-1.68-7.64-7.84-9.74-11.36-1.21-2.03-3.38-4.43-4.06-6.49-.71-2.15-3.15-16.01-3.25-18.26-.71-16.21,6.26-18.61,2.43-19.07-1.83-.22-17.21,11.41-21.91,10.14,1.16-1.23,2.49-2.97,3.25-4.46,10.15-5.23,19.36-12.1,29.21-17.85,3.69-2.15,24.79-14.19,26.37-14.61,16.42-4.37,40.66,7.05,46.66,23.53Z"/>
    <path class="cls-16" d="M512.64,395.04l-1.22-1.62c7.35-.83,19.41-2.33,17.45-5.68,15.17-4.57,26.22-19.35,27.59-34.89,2.78.38,2.31-.77,2.43-.81,10.17-3.88.91,15.68-4.06,22.31-9.3,12.42-27.04,19.55-42.2,20.69Z"/>
    <path class="cls-20" d="M528.87,387.74c1.97,3.35-10.1,4.85-17.45,5.68l1.22,1.62c-8.21.62-16.56-.39-24.75-.81-5.06,4.33-12.85,6.88-17.45,10.55-1.65,1.32-2.47,2.78-4.06,4.06.88-1.76,1.53-3.85,2.43-5.68.58-1.17-1.64-2.15-.41-3.25,5.54-3.29,16.65-9.08,16.63-12.17,8.41,3.75,34.67,2.76,43.82,0Z"/>
    <path class="cls-19" d="M558.89,352.04c-.12.05.34,1.19-2.43.81.5-5.61-.54-18.32-2.43-23.53,7.61-7.94,11.42,16.75,10.55,19.07-1.15,3.05-7.96,1.41-5.68,3.65Z"/>
  </g>
  <g>
    <path class="cls-12" d="M524.81,177.57c-2.77-5.01-17.01-18.3-17.85-19.88-.17-.33,4.23-4.75-2.43-4.46,9.19-3.05,18.3-6.17,27.59-8.93,6.97.36,10.17,2.32,11.77-2.43,5.86.11-13.46,23.92-19.07,35.7Z"/>
    <path class="cls-20" d="M532.11,144.3c-9.29,2.75-18.4,5.87-27.59,8.93-2.14.71-6.18.93-8.11,2.43-.15-.13-1.93.42-3.25-2.43,11.1-3.64,15.24-10.08,30.84-9.74,2.42.32,5.7.69,8.11.81Z"/>
  </g>
  <path class="cls-20" d="M326.82,394.23c-4.76,10.57-12.09,18.17-19.47,26.78,1.98-6.44,6.48-11.64,8.93-17.85.44-1.11,3.81.16-1.62-4.87,3.4-1.68,6.7-4.03,10.14-5.68,2.81-.52,1.9,1.63,2.03,1.62Z"/>
  <path class="cls-19" d="M467.2,421.01c-.08.43-2.83,7.25-3.25,8.11-4.21-.22-1.47,4.46-7.3,1.62,1.68-7.34,5.67-13.64,8.93-20.29.7,4.06,3.38,1.37,1.62,10.55Z"/>
  <path class="cls-20" d="M345.48,402.35c-1.55.87-13.09,8.54-12.98,9.33.09.67,7.02,3.94-6.49,5.27,1.81-3.31,3.13-7.24,4.87-10.55.59-1.13,1.06-2.14,1.62-3.25l12.98-.81Z"/>
  <path class="cls-15" d="M266.77,404.78c-5.8.71-18.26,13.22-22.72,5.68,1.8-1.63,23.67-11.53,22.72-5.68Z"/>
  <path class="cls-12" d="M287.06,414.52v.81c-.54.35-1.9,1.61-2.03,1.62-.56.06-.1-1.82-1.22-1.62h-.81c1.16-10.63-4.49-8.83-4.87-9.33-.31-.41,8.34-7.14,4.06-6.9.48-.26,5.2-3.74,5.68-2.84,2.93,5.47-4.66,9.17-4.87,9.74-.78,2.09,1.52,9.12,4.06,8.52Z"/>
  <path class="cls-1" d="M183.19,192.99c10.18.18,20.15,5.62,22.72,16.23,6.8,28.12-32.55,58.24-53.15,43.82-17.85-12.5-3.44-60.66,30.43-60.05Z"/>
  <path class="cls-20" d="M224.57,175.14c-4.36,4.28-22.38,12.22-23.53,16.63-.09.35,2.53-1.24.41,6.09,1.46.84,21.8-19.3,25.56-21.91,2.98-2.06,7.12-3.65,10.55-4.87-2.64,6.87-16.98,28.3-21.91,35.7-7.66,11.5.26-1.18-9.74,2.43-2.57-10.61-12.54-16.05-22.72-16.23-.98-3.5,5.27-2.58,3.25-6.49,10.46-1.89,23-1.72,24.34-18.66,3.57-2.42,6.12-9.75,3.25.81-8.92,13.49,3.25,2.15,10.55-11.36,1.86,2.95,15.33-5.7,16.23-5.68-1.38,4.39-23.24,21.5-23.53,23.13-.52,2.88,5.81.72,7.3.41Z"/>
  <path class="cls-2" d="M353.59,283.06v.81c-4.16,5.64-10.3,21.2-23.13,26.78l-2.03,4.06c-1.59,1.95-3.16,3.82-4.87,5.68q-10.75,4.46-21.5,8.93c-2.84,1.46-7.05.86-9.33,1.62-4.15,1.39-12.37,3.05-14.2,4.06-2.66,1.46-6.54,9.24-14.2,10.55,2.24-2.47,5.94-6.82,7.3-9.74.04-.09.72.01,1.62-1.22-.64-1.04-16.17-2.29-19.07-2.84l3.65-4.87c20.26,5.33,40.79-1.94,57.61-12.98,6.59-4.33,8.3-5.56,13.79-11.36,2.71-2.86,4.3-4.84,6.49-8.11,4.01-5.99,6.32-8.6,8.11-16.23q4.87,2.43,9.74,4.87Z"/>
  <path class="cls-16" d="M492.35,92.37c-4.48,4.71-6.31,9.62-6.9,9.74-3.07.63-1.71-2.06-2.03-2.43,1.8.47,4.04-7.8,2.03-8.11-4.34,5.96-7.07,4.14-8.52,4.87-18.76-1.91-10.92-.74-16.23,12.58-.53,1.33-7.62,15.47-8.11,16.23-9.41,14.36-9.42,10.33-7.3-3.65l2.43-1.62c.09.18,3.5,1.75,3.65,1.62,2.24-1.84,4.44-17.33,5.68-17.85,1.4-.59,1.23,1.75,1.62,1.62,1.32-.43,2.51-7.5.41-8.93-2.08-1.41-9.23-.07-11.36.81-10.52-8.24-30.59,11.91-48.69,17.04-.84-4.58-1.8-6.51-3.25-10.55,6.7-4.14,17.64-3.83,24.34-6.49,3.8,4.42,9.22-.37,8.52-4.87,8.84.4,17.26-2.37,25.97-3.25,8.97-.9,18.59.01,27.59-.81,9.03-.83,18.58-5.21,18.26-2.03-.05.5-2.79.49-8.11,6.09Z"/>
  <path class="cls-20" d="M152.35,299.29c-2.89,8.79-3.26,17.91,5.68,22.72,5.55,2.99,9.28,3.49,15.42.81-2.43,4.02,6.19,4.39,9.33,4.87-.84,3.19,1.06,3.02,1.22,3.25,1.28,1.87,2.22,5.39,2.43,5.68-3.02,6.95-10.52,5.67-10.55,6.9,3.02,2.17,3.47.3,4.06.41,1.78,5.75-2.81.66-4.06,4.06-6.81-3.43-5.99-5.68-8.11-6.49,5.35-2.43,2.14-3.24-5.68-5.68-2.14-2.7-3.08-.8-3.25-.81-1.69-.13.33,4.05-5.68-1.62-1.68-1.59-5.2-6.18-7.71-6.49-4.51-.57,1.31,3.39-1.62,3.25-.48-.02-1.87-2.98-7.71-5.68.26-.61.6-1,.81-1.62,1.88-5.59.65-7.99.81-13.79.23.08.56-.07.81,0,1.71.46,3.76,3.24,4.06-.81,3.92-12.58,4.09-3.47,9.74-8.93Z"/>
  <path class="cls-16" d="M492.35,92.37c-8.35,25.93-8.19,20.84-.81,17.85l5.68,4.06c-5.36,3.39-22.75,14-25.97,17.04-10.05,1.54-12.25,1.13-17.85,9.74-3.73-.07-8.25,1.72-12.17.81,12.48-11.45,23.1-21.29,28.4-38.14.11.09,1.33-.42,2.43,1.22-2.88,13.3,4.25,5.54,1.62-.41h.81c4.71-2.14.69,3.96,3.65,4.06.66.02,7.46-10.8,1.22-10.14,3.22-3.12,2.85-.17,4.06,1.22.32.37-1.04,3.06,2.03,2.43.58-.12,2.42-5.03,6.9-9.74Z"/>
  <path class="cls-2" d="M399.85,151.61c-8.29,2.33-6.66,4.73-12.98,10.95.62.81,12.93-.72,13.79-1.22,7.99,1.89-19.51,2.95-30.43,5.68-8.45,4.01-6.77,7.43-9.74,9.74-9.82,2.73-23.42,24.51-25.56,8.93,3.62.04,4.94-2.35,6.49-4.87,1.18-1.91,4.21-5.82.81-7.3.09-.03-.31-1.36.41-1.62.62-.22,6.7.46,10.14-7.3,1.84,0,3.87.17,5.68,0,9.2-.88,19.59-5.25,25.97-12.17,4.18-1.17,11.69-12.7,12.98-16.23,15.69-1.14-2.1,11.66,2.43,15.42Z"/>
  <path class="cls-5" d="M386.86,267.64c2.09.22,5.12,2.07,7.3,2.43,1.78,4.43,2.97.13,3.25,8.93-12.58-.06-22.57,11.75-24.75,11.36-7.93-1.43-11.43-25.47,14.2-22.72Z"/>
  <path class="cls-16" d="M385.24,211.65c-4.3,10.97-4.17,5.59.81,4.87.95,7.09-3.53,3.88-6.9,6.49-5.71,4.42-24.03,26.71-28,23.13-.49-.44-2.52-10.64-4.87-12.17.2-1.04,9.38-3.12,19.07-9.33,9.96-6.39,20.47-20.04,19.88-12.98Z"/>
  <path class="cls-16" d="M390.92,180.82c-3.57,4.16-7.92,10.76-12.17,13.79-5.45,3.89-18.82,8.33-25.97,9.74-.26-.54-.53-1.1-.81-1.62,1.59-.05-.83-1.25-.81-5.68,3.64,2.17,8-11.16,6.49-13.79,2.85-2.98.77,1.79,5.68-2.43-6.9,13.81-1.67,16.03,1.62,4.06l2.43.81c-2.54,5.08,4.83,3.02,4.06-2.43,4.09-.13-1.32,2.38,4.06.81.12-.03,1.24,1.98,2.43-.41.15-.87-.23-2.17,0-2.84l2.43,1.62c-.44,1.4-2.05,3.14.41,3.25,3.34-5.59,5.61-10.22,10.14-4.87Z"/>
  <path class="cls-18" d="M393.36,244.92c8.87,14.04,13.63,22.82,28.4,32.46-3.64,5.23-5.4,3.74-9.74,0-.64-.55-8.22-10.46-10.95-12.98-.68.52.62,8.19-.41,17.04l-2.43.81c.28-1.16-.76-1.56-.81-3.25-.28-8.8-1.46-4.49-3.25-8.93-5.03-12.51-6.73-16.39-5.68-31.24h1.62c.08,2.69,1.99,4.1,3.25,6.09Z"/>
  <path class="cls-17" d="M351.97,202.73c.28.52.55,1.09.81,1.62.9,1.85-.9,3.49-.81,3.65,1.55,2.94,7.2-1.4,2.43,3.65-1.26,1.33-.71,2.5-1.22,2.43-1.03-10.08-2.67,2.87-8.11,4.06-2.67.58-9.15-.94-10.95-3.25-6.97-8.9,8.41-29.67,17.85-12.17Z"/>
  <path class="cls-15" d="M146.67,290.36c-.09.32.27.15-1.62,5.68-5.75-2.32-6.75,6.16-8.11,10.55-3.01-4.5,3.65-12.19-2.43-6.9-.88.77-2.17,4.91-2.43,5.27-.78,1.09-.86,1.11-1.62,2.43-.9,1.57-2.64,1.85-3.25,2.84-.17.28,2.18,1.67-.81,6.49-1.4,2.26-7.29,8.16-9.74,9.33-1.74-21.16,12.49-29.27,30.02-35.7Z"/>
  <path class="cls-18" d="M354.41,211.65l3.25,5.68c-6.24,5.25-10.89,10.36-19.47,12.17-1.61-3.69-4.06-8.16-6.49-11.36l2.43-3.25c1.81,2.31,8.28,3.83,10.95,3.25,5.45-1.19,7.08-14.14,8.11-4.06.51.07-.04-1.1,1.22-2.43Z"/>
  <g>
    <path class="cls-18" d="M229.44,145.93c-5.12,7.53-10.4,15.14-15.42,22.72,2.88-10.57.32-3.23-3.25-.81-7.28,4.94-15.32,9.17-22.31,14.61-4.46,1.71-15.31-.75-10.14,4.87-2.82.47-5.62,2.66-8.93,1.62.95-.76,7.61-8.79,8.93-10.55,2.18-.47,7.88-4.42,9.33-5.68,17.48-15.18,40.67-38.52,57.61-55.18,4.75-.72,14.28-10.63,14.2-6.09-18.94,12.05-21,21.23-30.02,34.49Z"/>
    <path class="cls-15" d="M210.78,167.84c-1.34,16.94-13.88,16.78-24.34,18.66-2.62.47-5.55.39-8.11.81-5.16-5.62,5.68-3.16,10.14-4.87,6.99-5.43,15.03-9.67,22.31-14.61Z"/>
  </g>
  <path class="cls-19" d="M357.65,217.33l-3.25-5.68c4.77-5.05-.89-.72-2.43-3.65-.09-.17,1.71-1.8.81-3.65,7.15-1.41,20.51-5.85,25.97-9.74-5.37,8.09-13.7,16.49-21.1,22.72Z"/>
  <path class="cls-18" d="M141.81,282.25c-5.09,1.85-20.7,16.93-23.94,22.72-3.14-2.07,7.6-16.67,9.33-18.66,2.23-2.56,6.9-5.8,9.74-8.11l4.87,4.06Z"/>
  <path class="cls-8" d="M400.66,161.34c-.87.5-13.18,2.03-13.79,1.22,6.32-6.22,4.69-8.62,12.98-10.95,1.08-.3,6.21-1.86,6.49-1.22-2.25,2.24-3.69,9.81-5.68,10.95Z"/>
  <path class="cls-20" d="M483.43,99.67c-1.2-1.39-.84-4.34-4.06-1.22,6.25-.66-.56,10.17-1.22,10.14-2.96-.1,1.06-6.19-3.65-4.06-1.16-5.42-3.16-5.32,2.43-8.11,1.45-.72,4.18,1.09,8.52-4.87,2.01.31-.23,8.59-2.03,8.11Z"/>
  <path class="cls-15" d="M342.23,173.52c3.4,1.48.37,5.39-.81,7.3q-5.27.81-10.55,1.62c-.41-2.62,1.99-6.4,4.06-8.11,8.15-3.16,6.9-.68,7.3-.81Z"/>
  <path class="cls-15" d="M145.05,296.05c-.95,2.78-3.4,4.61-2.43,12.17-.3,4.05-2.35,1.27-4.06.81,2.02-.58-.74-1.12-1.62-2.43,1.36-4.39,2.37-12.86,8.11-10.55Z"/>
  <path class="cls-20" d="M364.96,184.88c-3.3,11.97-8.53,9.76-1.62-4.06,4.3-8.61,2.91-.61,1.62,4.06Z"/>
  <path class="cls-12" d="M341.42,180.82c-1.56,2.51-2.87,4.91-6.49,4.87-2.39-.03-3.63-.51-4.06-3.25q5.27-.81,10.55-1.62Z"/>
  <path class="cls-20" d="M371.45,183.25c.77,5.45-6.59,7.52-4.06,2.43,1.2-2.41,1.47-2.35,4.06-2.43Z"/>
  <g>
    <path class="cls-16" d="M447.72,97.24c-3.34,1.38-9.12,6.98-10.55,10.14-7.59,16.8,14.01-7.32,6.09-2.84,3.23-4.68,12.65-1.1,15.82-8.11,2.11,1.42.91,8.49-.41,8.93-.4.13-.22-2.21-1.62-1.62-1.24.52-3.44,16.01-5.68,17.85-.15.13-3.56-1.45-3.65-1.62-1.67-3.11,5.28-13.83,3.65-14.61-4.31,4.33-5.21,10.48-6.09,16.23-2.12,13.99-2.11,18.01,7.3,3.65.5-.76,7.58-14.9,8.11-16.23,5.31-13.32-2.54-14.48,16.23-12.58-5.59,2.8-3.59,2.69-2.43,8.11h-.81c-2.84-6.41-9.73-7.32-8.11-2.84.55,1.53,2.46.72,4.06,2.03-5.3,16.85-15.93,26.69-28.4,38.14l-1.62.81c6.99-10.72-1.87-7.81-5.68.81-12.85,7.65-30.86,23-14.61,19.88-11.9,7.63-21.84,18.28-28.4,30.84-1.72,5.98-3.39,11.61-5.68,17.45.58-7.05-9.92,6.6-19.88,12.98-9.68,6.21-18.87,8.29-19.07,9.33,2.34,1.54,4.38,11.73,4.87,12.17,3.97,3.58,22.29-18.7,28-23.13,3.37-2.61,7.85.6,6.9-6.49.08-.01.16-1.68,1.62-.41-.48,9.96,2.57,19.47,5.68,28.81-1.26-1.99-3.16-3.39-3.25-6.09h-1.62c-1.05,14.85.65,18.73,5.68,31.24-2.18-.36-5.21-2.21-7.3-2.43-9.7-7.65-12.21,2.88-19.47,1.62-.08-.01.29-1.44-.41-1.62-3.87-1-8.25,4.15-12.17-12.98-1.4.26,2.41,16.21-1.22,28.4q-4.87-2.43-9.74-4.87c.33-1.4.6-2.61.81-4.06,2.14-14.83-.3-24.29-4.87-38.14-.39-1.2-.68-4.32-1.62-6.49,8.59-1.81,13.23-6.92,19.47-12.17,7.4-6.23,15.73-14.63,21.1-22.72,4.26-3.04,8.6-9.63,12.17-13.79,2.65-3.09,5.33-6.45,8.93-8.52-6.91,1.94-17.09,2.55-19.47,10.14l-2.43-1.62c4.67-13.63-4.11,5.86-4.06-5.27-1.13-1.62-3.77,4.2,1.62,8.52-5.37,1.57.03-.95-4.06-.81-2.58.08-2.85.02-4.06,2.43l-2.43-.81c1.29-4.67,2.68-12.67-1.62-4.06-4.91,4.23-2.83-.54-5.68,2.43-2.78,2.9-6.48,10.6-6.49,13.79-.02,4.43,2.4,5.63.81,5.68-9.44-17.5-24.82,3.27-17.85,12.17l-2.43,3.25c-30.82-40.56-99.75-18.9-107.92,32.46-8.9,5.35-22.29,10.6-22.72,22.31,1.44,6.23,12.51-17.29,22.72-19.07-1.61,15.43.58,30.15,7.3,44.22.19,3.06-3.33,8.82-4.87,14.2-2.69,2.09-2.83-2.97-4.06-4.46-15.94-19.4-42.22,2.11-38.14,23.13-.16-.23-2.06-.06-1.22-3.25-3.14-.48-11.76-.85-9.33-4.87,6.92-3.02,11.17-13.18,11.36-20.29.05-1.8-1.49-7.86-2.43-9.74,3.04-2.62,8.67-9.83,12.58-9.74.38,0-1.05,5.87,2.84-.41-10.31-5.37-9.42,6-19.47,5.27-.97-.07-8.16-4.5-17.45.81-3.93,2.25-8.03,10.08-8.52,10.55-5.65,5.46-5.81-3.65-9.74,8.93-.97-7.56,1.48-9.39,2.43-12.17,1.89-5.53,1.53-5.36,1.62-5.68.36-1.3,8.05-12.8-4.87-8.11l-4.87-4.06c4.74-3.88,7.56-6.91,13.79-9.33-16.07,3.4-10.68-15.32-30.02-24.75,7.8-13.52,32.48-42.69,45.44-53.56,1.99-1.79,3.1-1.51,3.25-1.62,3.31,1.04,6.11-1.16,8.93-1.62,2.57-.42,5.49-.34,8.11-.81,2.03,3.91-4.23,2.99-3.25,6.49-33.87-.61-48.28,47.55-30.43,60.05,20.6,14.42,59.95-15.7,53.15-43.82,10-3.62,2.08,9.07,9.74-2.43,10.4-1.95,15.76-9.81,22.31-13.79.93-.57,5.57,1.45,11.36-7.3,5.7,1.15,5.22-2.82,6.49-3.25,14.29,2.2,4.88-1.13,5.27,4.87-.4,0-1.52-1.29-4.46-.81-7.48,13.78-2.1,6.15.81,5.68,1.57-.25,3.59.17,5.27,0,.2-.02,2.46,1.76,3.65,1.62,1.12-.13,6.21-3.1,8.11-3.25,9.86-.73,28.53.8,37.33-.81,17.7-3.23,15.42-13.16,21.1-16.23,2.4-.36,1.93.85,2.03.81-2.07,1.72-4.46,5.49-4.06,8.11.42,2.74,1.66,3.22,4.06,3.25,2.14,15.59,15.74-6.2,25.56-8.93,2.97-2.3,1.29-5.73,9.74-9.74,10.92-2.73,38.42-3.79,30.43-5.68,1.99-1.14,3.43-8.72,5.68-10.95-.28-.64-5.42.91-6.49,1.22-4.54-3.76,13.25-16.56-2.43-15.42,1.95-5.31,2.6-10.58,2.43-16.23-.07-2.53-.41-3.51-.81-5.68,18.1-5.13,38.17-25.29,48.69-17.04Z"/>
    <g>
      <path class="cls-16" d="M367.39,269.27c-5.26,4.3-9.75,9.13-13.79,14.61v-.81c3.63-12.2-.19-28.14,1.22-28.4,3.93,17.13,8.3,11.98,12.17,12.98.7.18.32,1.61.41,1.62Z"/>
      <path class="cls-20" d="M223.76,250.6c-.16,1.02.11,2.19,0,3.25-10.21,1.78-21.28,25.3-22.72,19.07.43-11.71,13.82-16.97,22.72-22.31Z"/>
      <path class="cls-19" d="M414.86,124.02c7.08-3.16,4.37,5.62,6.49,6.49,2.24.91,8.29-8.01,1.62,3.25-5.95-6.14-16.35-1.31-3.65-.41-13.4,6.53-16.05,8.31-4.06-4.06-.43-.76-.89-5.06-.41-5.27Z"/>
      <path class="cls-20" d="M430.28,111.03c1.56.08-3.07,21.66-4.87,10.55.92,5.26-2.87-.1-2.84-.41.1-1.09,7.12-3.35-6.09-3.65-4.11,9.24-3.6,1.17-1.62-.81,4.17-4.19,10.76.93,11.36.81,1.46-.29,1.65-6.61,4.06-6.49Z"/>
      <path class="cls-20" d="M390.92,180.82c-4.53-5.35-6.81-.72-10.14,4.87-2.46-.11-.85-1.84-.41-3.25,2.38-7.59,12.57-8.2,19.47-10.14-3.59,2.07-6.28,5.43-8.93,8.52Z"/>
      <g>
        <path class="cls-18" d="M191.3,255.47c7.23,2.15,10.02-3.76,12.98-8.93,2.08,3.7-13.14,23.89-16.63,25.97-.73.43-15.7,5.71-15.82,3.65,5.93-7.53,12.57-14.08,19.47-20.69Z"/>
        <path class="cls-16" d="M204.29,246.55c-2.97,5.17-5.75,11.08-12.98,8.93,2.15-2.06,10.36-13.59,12.98-8.93Z"/>
      </g>
      <path class="cls-16" d="M182.38,292.8c-.98-1.95-3.11-2.91-4.06-4.87,10.06.72,9.16-10.65,19.47-5.27-3.89,6.27-2.46.41-2.84.41-3.91-.09-9.53,7.12-12.58,9.74Z"/>
      <path class="cls-15" d="M262.71,192.18c-1.68.17-3.7-.25-5.27,0-2.91.47-8.29,8.1-.81-5.68,2.94-.48,4.06.81,4.46.81,3.37-.02,3.65-2.25,4.06-1.22.07,3.83-4.28,2.29-2.43,6.09Z"/>
      <path class="cls-5" d="M375.91,238.43l4.46,6.09c-4.92,5.57-5.74.78-10.14,5.27-1.69-.88,4.39-8.85,5.68-11.36Z"/>
      <path class="cls-20" d="M179.54,258.72q-3.65,3.65-7.3,7.3c-26.27,5.96-2.11-1.24,7.3-7.3Z"/>
      <path class="cls-16" d="M237.15,200.29c13.3-2.75,1.05,5.16-11.77,8.52,3.23-1.67,9.32-8.02,11.77-8.52Z"/>
      <path class="cls-20" d="M351.16,197.05c.02-3.19,3.72-10.9,6.49-13.79,1.51,2.63-2.85,15.96-6.49,13.79Z"/>
      <path class="cls-20" d="M325.19,200.29c8.26-9.45-.1-2.24-2.43-5.27-2.11-2.74,21.37-6.35,2.43,5.27Z"/>
      <path class="cls-20" d="M377.94,180.82c-.23.67.15,1.97,0,2.84-1.19,2.39-2.32.37-2.43.41-5.39-4.32-2.75-10.14-1.62-8.52-.05,11.13,8.73-8.36,4.06,5.27Z"/>
      <path class="cls-16" d="M439.61,142.68c-1.56.43-5.43.66-5.68.81,3.81-8.62,12.67-11.53,5.68-.81Z"/>
      <g>
        <path class="cls-18" d="M459.08,96.43c-3.17,7.02-12.59,3.44-15.82,8.11,7.93-4.48-13.68,19.64-6.09,2.84,1.43-3.16,7.21-8.76,10.55-10.14,2.13-.88,9.28-2.22,11.36-.81Z"/>
        <path class="cls-20" d="M473.69,104.54c2.63,5.94-4.51,13.7-1.62.41-1.1-1.63-2.33-1.13-2.43-1.22-1.59-1.31-3.5-.5-4.06-2.03-1.62-4.48,5.28-3.57,8.11,2.84Z"/>
        <path class="cls-18" d="M447.72,119.96l-2.43,1.62c.87-5.75,1.77-11.9,6.09-16.23,1.63.78-5.32,11.5-3.65,14.61Z"/>
      </g>
      <path class="cls-16" d="M228.23,300.91c4.04.59-4.46,3.1-4.06,4.87-3.2-3.25,3.56-4.94,4.06-4.87Z"/>
      <path class="cls-20" d="M325.19,200.29c-.14.08.72,2.06-2.43,2.03-.28-1.56,1.8-1.3,2.43-2.03Z"/>
    </g>
  </g>
  <path class="cls-20" d="M317.08,126.45c-.81,10.7,1.11,16.67,7.3,25.16,2.93,4.01,6.68,8.62,11.36,10.55-4.86,11.13-20.72,10.3-31.24,12.17-9.08,1.17-12.69-2.41-13.39-2.43,2.25-2.71-4.36-3.38-8.93-5.68-.3-1.9.78-1.54.81-1.62,3.94.56,17.78,2.25,19.88,1.62.72-.21.3-1.57.41-1.62,4.88-2.39,3.67-4.09,6.9-7.3,17.45.93,13.39-1.17,7.71-11.77-1.9-3.55,2.02-4.94-5.68-8.11,8.79-10.63-5.73-.12-10.95,2.84-.89.69-.15,3.06-.41,3.25-2.24,1.67-16.73,11.08-16.23,8.52,11.33-6.34,19.43-26.31,32.46-25.56Z"/>
  <path class="cls-10" d="M303.28,164.59c.63-1.77,1.66-5.04,2.43-6.49.15-.27,3.56-3.32,3.25-5.27-.42-2.62-6.48,2.34-8.11-.41,1.92-1.36,11.6-9.85,11.36-11.77-4.46-1.26-6.64,2.97-11.36,2.84.26-.19-.48-2.55.41-3.25,5.23-2.96,19.75-13.47,10.95-2.84,7.7,3.17,3.78,4.56,5.68,8.11,5.68,10.6,9.74,12.7-7.71,11.77-3.23,3.22-2.02,4.91-6.9,7.3Z"/>
  <path class="cls-17" d="M237.56,171.08c-3.43,1.22-7.57,2.81-10.55,4.87-.73-2.87-.85-1.15-2.43-.81-1.49.32-7.83,2.47-7.3-.41.29-1.62,22.15-18.74,23.53-23.13,2.99-1.47-2.65,17.91-3.25,19.47Z"/>
  <path class="cls-16" d="M417.7,67.22c-2.45,2.45-1.45-.22-4.06,2.03,2.95,3.02-11.27,6.73-10.55,9.74.32,1.33,2.74-1.27,3.25,0,.1.26-1.5.14-1.62,4.46-2.56.87-6.45-1-8.93-1.62-7.55-6.59,12.34-5.42,7.71-10.55-3.56,1.05-7.7.99-6.9-4.06.85-1.33,1.52-.67,1.62-.81,9.9,3.76,7.64,2.14,11.77-1.62.45-.41,4.67.47,3.65-4.06,1.63-.8,2.7-3.45,4.87-2.03-1.25,2.18-4.2,10.47-.81,8.52Z"/>
  <path class="cls-20" d="M404.72,83.44c-.01.5,4.6.88-2.43,8.11-1.05,1.08-9.83,6.82-10.95,6.49-1.51-3.02-6.44-6.55-9.33-8.11,1.06-3.54,16.12.2,16.23-3.65.02-.8-5.17-1.75-3.25-4.46.25.06.56-.06.81,0,2.47.62,6.37,2.49,8.93,1.62Z"/>
  <path class="cls-19" d="M298.42,154.04c4.79,5.07-.4,8.74,7.3,4.06-.77,1.45-1.81,4.72-2.43,6.49-.1.05.31,1.41-.41,1.62-2.1.63-15.94-1.07-19.88-1.62,2.95-6.99,10.63-7.12,15.42-10.55Z"/>
  <g>
    <path class="cls-17" d="M278.94,126.45c.6,2.26.74,3.3.81,5.68.07,2.58-.19,3.99-.81,6.49-6.18-.11-17.77,8.44-18.66,14.61-24.17-.19-11.26-42.12,9.33-38.14,4.64.9,8.25,7.24,9.33,11.36Z"/>
    <path class="cls-17" d="M291.11,110.22c1.18,3.7,3.14-2.27,7.3-.41-5.42,3.82-7.63,9.16-8.93,10.14-.42.32-7.72,3.26-9.74,4.06-1-4.59-5.69-8.01-5.68-8.52,0-.71,9.16-6.66,10.55-7.71q3.25,1.22,6.49,2.43Z"/>
    <path class="cls-20" d="M278.94,138.62c-2.07,8.33-10.11,14.67-18.66,14.61.89-6.17,12.48-14.72,18.66-14.61Z"/>
  </g>
  <path class="cls-12" d="M413.64,60.72c1.02,4.53-3.2,3.65-3.65,4.06-4.12,3.76-1.86,5.38-11.77,1.62.22-.29-1.62-.26,2.84-5.68,4.53.8,10.58,1.25,10.55,2.43.48-3.07.81-1.83,2.03-2.43Z"/>
  <path class="cls-19" d="M396.6,67.22c-.8,5.05,3.33,5.11,6.9,4.06,4.63,5.13-15.26,3.96-7.71,10.55-.25-.06-.56.06-.81,0-1.19-.3-5.97-.46-6.49-1.22,4.17-3.58,5.29-8.97,8.11-13.39Z"/>
  <path class="cls-2" d="M289.49,119.96c3.5,2.97-3.05,6.87-9.74,12.17-.07-2.38-.21-3.42-.81-5.68,1.09.05.99-1.62.81-2.43,2.02-.8,9.32-3.74,9.74-4.06Z"/>
  <path class="cls-20" d="M229.44,145.93c-1.62,3.64-2.99,7.88-4.87,11.36-7.3,13.51-19.47,24.85-10.55,11.36,5.01-7.58,10.29-15.19,15.42-22.72Z"/>
  <path class="cls-19" d="M305.72,158.1c-7.7,4.68-2.52,1.02-7.3-4.06.85-.61,1.69-1.09,2.43-1.62,1.64,2.74,7.7-2.21,8.11.41.31,1.95-3.1,5-3.25,5.27Z"/>
  <path class="cls-20" d="M294.36,84.26c4.68,1.79,1.51,7.12-.81,9.74-10.81-4.45,8.47-1.81-5.68-8.11,1.94-1.23,4.14-2.52,6.49-1.62Z"/>
  <g>
    <path class="cls-16" d="M407.96,7.17c-3.83,6.94-10.68,2.81-23.94,10.55-6.86,4-20.71,17.8-27.59,22.72-8,5.72-20.45,10.6-22.72,15.42-3.19-2.25-7.95,1.23-8.93,4.87-.48-.94-2.74-1.13-3.25-.81-2.86,1.81-25.9,20.77-27.59,22.72-.73.84.35.62.41,1.62-2.35-.9-4.55.4-6.49,1.62-8.36,5.29,2.84,7.16-6.49,14.2,13.47-6.51,18.06-3.14,9.74,3.65-2.61,2.13-4.01,2.18-6.49,4.06-1.39,1.05-10.54,7-10.55,7.71,0,.51,4.68,3.93,5.68,8.52.18.81.27,2.48-.81,2.43-1.09-4.12-4.69-10.46-9.33-11.36-20.6-3.98-33.51,37.95-9.33,38.14,8.55.07,16.6-6.27,18.66-14.61.62-2.5.88-3.91.81-6.49,6.69-5.31,13.24-9.21,9.74-12.17,1.29-.98,3.5-6.33,8.93-10.14-4.16-1.86-6.12,4.1-7.3.41,3.38-6.82,18.68-8.91,22.31-14.61,4.66,4.25,7.7-7.26,10.14-10.14,5.73-6.76,13.84-10.91,17.45-19.07,1.99,4.54,12.94-6.04,10.14,4.87-1.27.62-8.39,9.86-10.95,2.43-10.93,13.34-4.47,7.44-3.25,7.3,4.98-.54,8.07.96,8.93.81,4.05-.71,5.27-6.23,9.74-2.43,1.49-.32,4.32-8.98,5.27-10.55,3.92-6.41,8.2-12.84,12.98-18.66,10.13-1.48,5.36-2.6,10.95-5.68,1.41-.77,4.81,3.37.41-4.06,13.47-4.25,27.9-8.76,39.76-15.42.32,1.89.34,7.64-.81,9.33,1.13,3.89,7.6-5.76,8.11-.81.11,1.07-12.51,16.6-12.17,17.85.16.59,9.46,3.5,0,7.3-1.07,1.77,5.82-.49,0,6.9-.09.11-1.67.86-2.43,1.62-3.39,1.95-.44-6.34.81-8.52-2.17-1.42-3.24,1.23-4.87,2.03-1.22.6-1.54-.63-2.03,2.43.03-1.19-6.02-1.63-10.55-2.43-4.46,5.42-2.62,5.39-2.84,5.68-.11.14-.77-.52-1.62.81-2.82,4.42-3.95,9.81-8.11,13.39.53.75,5.3.91,6.49,1.22-1.93,2.71,3.27,3.66,3.25,4.46-.11,3.86-15.16.11-16.23,3.65-26.79-14.54-62.55,5.4-64.92,36.52-13.03-.75-21.13,19.22-32.46,25.56-.5,2.56,13.99-6.85,16.23-8.52,4.72.13,6.9-4.1,11.36-2.84.24,1.92-9.44,10.4-11.36,11.77-.75.53-1.59,1.02-2.43,1.62-4.79,3.43-12.46,3.56-15.42,10.55-.04.08-1.11-.28-.81,1.62-1.72,1.96.94,1.87,4.06,3.25-.7,3.6-6.09,1.75-4.06,5.68-9.35,4.99,2.28,1.94,4.06-1.62,1.1-.24,3.53-.58,4.06-1.62.27.01.54-.01.81,0,.7.03,4.31,3.6,13.39,2.43,10.52-1.87,26.38-1.04,31.24-12.17,4.7,1.93,11.94,2.41,17.04,2.43-3.45,7.76-9.53,7.08-10.14,7.3-.72.26-.32,1.59-.41,1.62-.4.13.85-2.35-7.3.81-.1.04.37-1.17-2.03-.81-5.68,3.07-3.4,12.99-21.1,16.23-8.8,1.61-27.47.08-37.33.81-1.9.14-6.99,3.11-8.11,3.25-1.19.14-3.45-1.64-3.65-1.62-1.85-3.8,2.5-2.26,2.43-6.09-.41-1.03-.69,1.19-4.06,1.22-.39-5.99,9.02-2.67-5.27-4.87-1.27.42-.79,4.39-6.49,3.25-5.79,8.76-10.43,6.74-11.36,7.3-6.56,3.99-11.92,11.85-22.31,13.79,4.93-7.4,19.27-28.84,21.91-35.7.6-1.56,6.24-20.94,3.25-19.47-.89-.02-14.37,8.63-16.23,5.68,1.88-3.48,3.25-7.72,4.87-11.36,9.03-13.26,11.08-22.43,30.02-34.49.08-4.55-9.45,5.37-14.2,6.09-16.95,16.66-40.14,40-57.61,55.18-1.45,1.26-7.15,5.21-9.33,5.68,9.31-12.45,17.28-26.84,28.4-38.14,9.05-9.19,21.27-16.23,26.37-21.1,12.76-12.18,19.7-30.38,47.06-47.88,17-10.87,62.96-30.35,73.84-38.14,9.71-6.94,18.25-27.71,53.96-25.97Z"/>
    <g>
      <path class="cls-18" d="M309.37,106.17c-5.49,10.55-10.25,22.02-16.63,32.05-2.99,4.69-14.34,21.01-18.26,21.5,12.24-17.35,20.13-38.38,34.89-53.56Z"/>
      <path class="cls-19" d="M411.61,38c5.43-1.55,4.93,4.07,5.27,4.46,1.52,1.72,7.09.45,2.03,6.09-6.98,7.77.84-7.56-9.74-2.43-.83.4-3.13,3.95-7.3,5.68-3.04,1.03-6.98-1.21-13.39,2.03,3.05-10.45,9.03-17.79,9.33-3.65.94-2.26,12.91-11.92,13.79-12.17Z"/>
      <path class="cls-20" d="M360.9,68.84c-.96,1.57-3.78,10.23-5.27,10.55-4.47-3.79-5.68,1.73-9.74,2.43-.86.15-3.95-1.36-8.93-.81-1.22.13-7.68,6.03,3.25-7.3,2.57,7.43,9.69-1.82,10.95-2.43,2.02-.98,10.3-4.87,9.74-2.43Z"/>
      <path class="cls-16" d="M293.55,93.99c4.61-.13,3.46,10.19-2.43,9.74,8.32-6.79,3.73-10.16-9.74-3.65,9.34-7.04-1.87-8.91,6.49-14.2,14.15,6.3-5.13,3.66,5.68,8.11Z"/>
      <g>
        <path class="cls-20" d="M272.45,106.17c-.9-2.66-4.19-1.35-6.49-1.62,2.74-3.47,5.72-3.21,10.14-3.25,6.18-12.25,5.91-.34-3.65,4.87Z"/>
        <path class="cls-15" d="M272.45,106.17c-6.98,3.8-10.12,2.97-6.49-1.62,2.3.27,5.59-1.04,6.49,1.62Z"/>
      </g>
      <path class="cls-18" d="M290.3,171.89c-.53,1.05-2.96,1.38-4.06,1.62-1.7.37-2.57.83-4.06,1.62-2.04-3.93,3.36-2.08,4.06-5.68,1.29.57,3.48,1.45,4.06,2.43Z"/>
      <path class="cls-19" d="M291.11,171.89c-.27-.01-.54.01-.81,0-.58-.98-2.77-1.87-4.06-2.43-3.12-1.38-5.78-1.29-4.06-3.25,4.57,2.3,11.17,2.97,8.93,5.68Z"/>
      <path class="cls-20" d="M255.81,162.16c1.58-.5,17.18,1.69.81,1.62-.33,0-5.64,3.76-.81-1.62Z"/>
      <path class="cls-20" d="M286.24,173.52c-1.78,3.57-13.41,6.62-4.06,1.62,1.48-.79,2.36-1.25,4.06-1.62Z"/>
    </g>
  </g>
  <path class="cls-19" d="M648.15,172.7c-2.08-.32-2.93,2.17-3.25,2.43-.31.26-.56,5.23-5.68,4.06-2.25-4.91,4.34-7.78-2.43-8.11-7.82-13.65-.6-4.32,1.22-4.06.87.13,14.18-5.17,10.14,5.68Z"/>
  <path class="cls-18" d="M239.99,353.66c1.82,1.89,11.14,2.56,14.61,1.62.86,9.54,12.27-1.96,13.39-2.43,2.38-1.01,5.4.89,5.68.81,2.69-.73.58-5.61,5.27-3.25-2.07,1.62-9.02,8.42-12.17,11.36-2.64,2.47-5.5,4.81-8.11,7.3-7.66-3.04-7.91,9.82-19.47,8.93,3.44-4.5,6.38-9.5,10.14-13.79-8.31,1.75-16.63,3.09-24.75,5.68-11.09.47-18.45,4.15-11.36-1.22-2.16-1.61-3.14,1.3-8.11,2.84,1.92-5,5.06-9.32,8.93-12.98,2.03-1.93,4.23-3.27,6.49-4.87,2.91-2.05,6.97-3.03,7.3-3.25q5.88-.81,11.77-1.62c1.04.58-1.09,3.32.41,4.87Z"/>
  <path class="cls-12" d="M196.98,355.28c8.94,1.63,17.94,1.11,17.04,3.25-3.86,3.67-7.01,7.99-8.93,12.98-.35.11-1.49,1.74-3.65,1.62-8.04-.44-.95-4.88-1.22-5.27-.68-1.01-3.31.2-4.06-.81-.94-1.27,1.72-5.49.41-6.09-3.12-1.4-13.08,10.13-2.84-5.68.16.04-.55-.69,3.25,0Z"/>
  <path class="cls-15" d="M258.65,369.08c-3.28,3.12-5.76,7.88-8.93,10.95-4.86,4.71-10.12,8.41-16.23,14.2-4.04,2.36-4.01,1.96-8.93,1.62,4.98-5.59,10.05-11.9,14.61-17.85,11.56.9,11.82-11.97,19.47-8.93Z"/>
  <path class="cls-19" d="M158.85,334.99c.47,1.83,2.95,2.39,3.25.81,7.82,2.44,11.03,3.25,5.68,5.68-7.73-2.94-14.21,5.22-15.01,4.87-.48-.21-.73-3.59-1.62-4.06-.77-.4-6,2.75-17.04,1.62.34-6.21.84-2.55,2.03-3.25,5.39-3.17,11.65-4.2,17.04-7.3,6.01,5.67,3.99,1.5,5.68,1.62Z"/>
  <path class="cls-19" d="M153.17,333.37c-5.39,3.1-11.65,4.13-17.04,7.3-.46-1.15,1.57-3.07,1.62-3.25,5.34-.05,4.71-4.97,0-2.43.37-2.15,1.65-2.31,1.22-3.25-4.01-1.7-2.71,10.36-8.52,1.62,2.31-4.1,5.47-8.44,5.68-8.93,5.84,2.7,7.23,5.66,7.71,5.68,2.93.14-2.89-3.81,1.62-3.25,2.51.31,6.03,4.9,7.71,6.49Z"/>
  <path class="cls-12" d="M196.98,353.66c-.12.41.06,1.1,0,1.62-3.8-.69-3.09.04-3.25,0-5.43-1.26-12.78-4.75-17.85-7.3,1.25-3.39,5.83,1.69,4.06-4.06,5.11.89,18.92,3.18,17.04,9.74Z"/>
  <path class="cls-19" d="M233.5,394.23c-.52.5.78,3.15-10.14,9.74-2.5-3.25-5.81,5.06-9.33,2.43,3.14-3.76,7.33-6.95,10.55-10.55,4.91.34,4.88.74,8.93-1.62Z"/>
  <path class="cls-18" d="M137.75,337.43c.18-.62-.13-1.67,0-2.43,4.71-2.54,5.34,2.38,0,2.43Z"/>
  <g>
    <path class="cls-12" d="M137.75,334.99c-.13.77.18,1.81,0,2.43-.05.17-2.08,2.1-1.62,3.25-1.19.7-1.69-2.96-2.03,3.25,11.04,1.12,16.27-2.02,17.04-1.62.89.46,1.14,3.85,1.62,4.06.81.35,7.29-7.81,15.01-4.87,2.12.81,1.31,3.06,8.11,6.49,5.07,2.56,12.43,6.05,17.85,7.3-10.24,15.81-.28,4.28,2.84,5.68,1.32.59-1.35,4.82-.41,6.09.75,1.01,3.38-.19,4.06.81.27.39-6.82,4.83,1.22,5.27,2.16.12,3.3-1.51,3.65-1.62,4.97-1.54,5.95-4.45,8.11-2.84-7.09,5.36.27,1.69,11.36,1.22-.09.03.31,1.38-.41,1.62-1.81.61-15.78,3.17-15.82,4.46,7.92,4.95,18.26,1.14,24.34-5.68-.04-1.06-7.07-.45-8.11-.41,8.12-2.59,16.44-3.93,24.75-5.68-3.77,4.29-6.7,9.3-10.14,13.79-4.56,5.95-9.62,12.27-14.61,17.85-3.21,3.6-7.4,6.79-10.55,10.55-4.57-3.41-.83-2.65-2.84-7.3-1.47,3.68-17.56,6.79-18.26,8.52,1.68,8.49,10.4,9.58,17.85,8.52.14,4.32-.69,8.62-.81,12.98-32.56-24.89-76.23-36.12-82.77-83.17l-2.43-2.03c2.19-3.41,3.68-7,5.68-10.55,5.81,8.74,4.51-3.32,8.52-1.62.44.94-.85,1.1-1.22,3.25Z"/>
    <path class="cls-16" d="M224.57,369.89c1.04-.04,8.08-.66,8.11.41-6.09,6.82-16.43,10.63-24.34,5.68.04-1.29,14.01-3.85,15.82-4.46.71-.24.32-1.59.41-1.62Z"/>
    <path class="cls-16" d="M173.05,356.09c1.52-.68,1.68,2.74.81,3.25-.41.24-2.15-2.64-.81-3.25Z"/>
  </g>
  <path class="cls-18" d="M519.94,99.67c-.26.25-.75,2.89-4.46,5.68-2.62,1.97-6.69,3.26-9.33,4.87-1.87,1.14-3.78,2.06-5.68,3.25-.14.09-1.37-.38-3.25.81l-5.68-4.06c4.63-1.87,9.2-3.71,13.79-5.68,5.08-2.18,9.11-5.63,14.61-4.87Z"/>
  <path class="cls-12" d="M508.58,113.47c.41,1.03,2.87,8.54,2.03,8.93-10.49-13.75-1.45.37-1.22,2.84.22,2.31-1.2.17-1.62.41-1.54-2.14-3.09-7.94-4.87-3.65-.53-6.12-1.53-4.19-1.62-4.46-.44-1.23-.88-2.72-.81-4.06,1.9-1.19,3.81-2.1,5.68-3.25,1.26.32,2.04,2.24,2.43,3.25Z"/>
  <path class="cls-18" d="M524.81,115.09c-5.32,2.69-6.71,8.19-12.17,2.43,1.01-1.62,5.99-.97,12.17-2.43Z"/>
  <g>
    <path class="cls-20" d="M490.73,68.03q-1.01,4.87-2.03,9.74c14.6,1.2.98-1.5,10.14-2.43,1.66,3.07-1.95.44-1.62,2.84.13.97,5.38.92,7.3,3.25,1.53,1.84,1.3,8.04,2.84,8.52.34.11,5.98-3.31,6.09-3.65,1.14-3.65-13.78-7.38-5.68-13.39,10.08,3.57,20,8.33,29.62,12.98l1.22-1.62c1.39,4.08,2.51.68,3.65,1.62,1.76,1.45,2.57,7.49,22.31,9.74,2.06,1.34,3.52,3.21,5.27,4.87,8.58,2.29,17.85,4.51,25.97,8.11,10.61,4.71,15.79,10.04,16.63,10.55l1.22,2.43c-13.12,3.16-36.49-14.36-46.25-8.93-7.84,4.36,5.76,4.28,20.69,10.95.53,1.04-11.72,6.77-6.49,8.52-.34.33-1.55,1.53-1.62,1.62-1.33-1.79-4.13,3.24-4.46,3.25-.38.01-5.81-4.21-6.09-4.46-.31-.29-3.22-8.35-4.87-4.87-2.01,4.24,10.78,16.94,1.62,25.16,3.04.28,3.08,1.16,3.25,1.22-3.68-.47-4.55.39-6.49,3.25h-.81c7.43-14.08.11-6.22-1.62-7.71-1.99-1.71.58-20.92,4.06-8.93.66,2.26-1.69,9.15,2.03,7.71,4.62-1.79-8.71-22.41-10.95-25.16-1.35-1.65-.35-3.32-5.27-4.06q-4.87,4.87-9.74,9.74c-.65-10.96,2.06-23.02-13.39-15.42-.95.47-1.49,1.15-2.43,1.62-6.19,1.46-11.16.82-12.17,2.43-.96-1.01-1.28-4.31-4.06-4.06-.4-1-1.17-2.93-2.43-3.25,2.64-1.61,6.71-2.9,9.33-4.87,3.72-2.79,4.2-5.43,4.46-5.68,6.6-6.17,7.43-2.91,7.3-4.46-.22-2.65-4.93-2.8-8.52,2.03-.22-7.92-8.88-4.32-9.33-2.03-.92,4.69,6.65-5.43-.81,4.06-.2.25,2.03,6.39-2.03.41-13.73,3.22.64.26-1.22,4.87-4.59,1.97-9.17,3.81-13.79,5.68-7.37,2.99-7.54,8.08.81-17.85,5.32-5.6,8.06-5.58,8.11-6.09.33-3.18-9.23,1.2-18.26,2.03-9,.82-18.62-.09-27.59.81-8.7.88-17.12,3.65-25.97,3.25.7,4.5-4.72,9.29-8.52,4.87,4.99-1.98,5.07-6.5,10.55-6.9-9.22-4.98,1.13-1.67,4.46-2.84.87-.31-1.42-8.13,13.79-3.25,1.71-5.38,36.19-6.46,38.14-8.11,1.2-1.02.36-7.28,2.03-8.93,2.27.43,1.53.79,1.62.81Z"/>
    <g>
      <path class="cls-15" d="M507.77,72.9c-8.1,6.01,6.82,9.74,5.68,13.39-.11.34-5.75,3.76-6.09,3.65-1.54-.48-1.31-6.68-2.84-8.52-1.93-2.33-7.17-2.28-7.3-3.25-.33-2.4,3.28.23,1.62-2.84-1.99-3.67-10.17-2.76-7.3-7.3,6.4,1.48,10.12,2.71,16.23,4.87Z"/>
      <path class="cls-12" d="M491.54,68.03c-2.87,4.55,5.31,3.63,7.3,7.3-9.16.93,4.45,3.63-10.14,2.43q1.01-4.87,2.03-9.74c.26.06.55-.06.81,0Z"/>
      <path class="cls-12" d="M579.99,133.75c-.23.31-.58,1.23-.81,1.62-.74,1.23-2.16,2.76-2.43,4.06-.99,4.61.53,9.85,0,14.61-.36-.06-1.97,1.82-7.3,0-.16-.06-.2-.94-3.25-1.22,9.16-8.22-3.63-20.92-1.62-25.16,1.65-3.48,4.56,4.58,4.87,4.87.28.26,5.71,4.47,6.09,4.46.33,0,3.13-5.03,4.46-3.25Z"/>
      <path class="cls-15" d="M519.94,99.67c-5.5-.76-9.53,2.69-14.61,4.87,1.86-4.61-12.51-1.64,1.22-4.87,4.06,5.98,1.83-.16,2.03-.41,7.46-9.48-.11.63.81-4.06.45-2.29,9.11-5.89,9.33,2.03,3.59-4.83,8.3-4.68,8.52-2.03.13,1.55-.7-1.71-7.3,4.46Z"/>
      <path class="cls-15" d="M530.9,96.43c.7-.03,6.42,5.16,4.06,6.49-5.26,2.97-7.39-6.37-4.06-6.49Z"/>
      <path class="cls-16" d="M492.76,99.67c5.1-1.22-1.98,11.04-4.06,9.74-.03-1.53,3.33-9.56,4.06-9.74Z"/>
      <path class="cls-18" d="M513.05,111.03q5.88.2,11.77.41c-3.56,1.72-9.98,4.14-11.77-.41Z"/>
      <path class="cls-20" d="M563.36,99.67c.14-.06,1.4,2.42.81,2.43-1.82.04-1.5-2.13-.81-2.43Z"/>
    </g>
  </g>
  <g>
    <path class="cls-20" d="M640.04,137c-4.72,5-7.56,5.99-12.98,8.93-4.2,2.27-9.46,5.31-14.2,5.68,2.1,3.27-3.9,6.05-6.49,6.49-11.83,2.01-5.3-2.26-5.27-2.84.01-.28-2.04-.85-4.87-2.84,9.26-.47.66-1.16-1.22-2.43-3.73-2.53-4.26-7.51-5.27-2.43-.57-.5-9.19-3.91-3.65-5.68,8.16-2.61,5.29,9.97,16.23,7.3,13.72-3.34-7.66-21.46-23.13-13.79.23-.39.58-1.31.81-1.62.07-.09,1.28-1.29,1.62-1.62,14.11-13.7,21.13,1.72,37.73-.81,2.43-1.41-4.52-5.18-.41-7.3,6.98,4.24,14.06,8.95,21.1,12.98Z"/>
    <path class="cls-19" d="M591.35,156.48c-4.82-.81-9.79-1.68-14.61-2.43.53-4.76-.99-9.99,0-14.61q7.3,8.52,14.61,17.04Z"/>
    <g>
      <path class="cls-20" d="M589.73,147.55c3.21,2.8,3.35,2.66,6.49,4.87,2.83,1.99,4.88,2.56,4.87,2.84-.03.58-6.56,4.85,5.27,2.84,2.59-.44,8.59-3.22,6.49-6.49,4.74-.37,10-3.41,14.2-5.68,2.62,5.9,11.01-6.75,16.23-6.49,4.01,2.99,8.64,2.61,12.98,4.87-.09,6.03,2.56,6.55,2.43,6.9-1.28,3.49-16.51.6-19.88,1.22-.17.03-1.24,3.31-2.43,2.43-1.69-1.25,3.38-5.04-9.74-1.62,5.33,5.88-11.33,8.56-21.5,7.3-4.82-.6-9.04-3.26-13.79-4.06q-7.3-8.52-14.61-17.04c.28-1.3,1.7-2.83,2.43-4.06,15.47-7.66,36.84,10.46,23.13,13.79-10.94,2.66-8.07-9.92-16.23-7.3-5.54,1.77,3.08,5.18,3.65,5.68Z"/>
      <path class="cls-15" d="M643.28,139.43c-5.22-.25-13.61,12.39-16.23,6.49,5.43-2.94,8.26-3.93,12.98-8.93,1.24.71,2.92.95,3.25,2.43Z"/>
      <path class="cls-15" d="M596.22,152.42c-3.14-2.21-3.28-2.07-6.49-4.87,1.02-5.08,1.54-.09,5.27,2.43,1.88,1.27,10.48,1.96,1.22,2.43Z"/>
      <path class="cls-20" d="M595,141.06c2.24-.64,7.24,4.77,4.06,5.68-3.05.87-6.83-4.89-4.06-5.68Z"/>
    </g>
  </g>
  <g>
    <path class="cls-20" d="M136.94,278.19c-2.83,2.32-7.51,5.55-9.74,8.11-.89-1.69-6.38,1.54-7.3,1.62-9.36.81-4.3-3.98-10.55-8.11,1.93-14.19,4.14-23.18,11.36-35.7,19.34,9.43,13.95,28.15,30.02,24.75-6.24,2.42-9.05,5.45-13.79,9.33Z"/>
    <path class="cls-20" d="M119.49,262.78l10.95,6.09q-7.91,5.07-15.82,10.14c-1.57-1.16,2.63-16.04,4.87-16.23Z"/>
  </g>
  <g>
    <path class="cls-19" d="M146.67,290.36c-17.53,6.44-31.76,14.54-30.02,35.7-2.75,1.31-1.29,3.03-4.87-.81-2.95-8.7-3.75-13.49-4.06-22.72,4.05.9,12.09-10.81,12.17-13.79v-.81c.92-.08,6.41-3.31,7.3-1.62-1.73,1.99-12.47,16.59-9.33,18.66,3.24-5.79,18.84-20.87,23.94-22.72,12.92-4.69,5.23,6.82,4.87,8.11Z"/>
    <path class="cls-18" d="M144.65,282.25c4.41-.05,2.25,5.17-1.62,7.3-12.38,6.82-.48-7.28,1.62-7.3Z"/>
  </g>
  <path class="cls-19" d="M137.75,309.03c-.16,5.81,1.07,8.21-.81,13.79h-.81q-3.25-3.25-6.49-6.49c5.45-7.28,8.1-4.61.81-8.93.76-1.33.84-1.35,1.62-2.43,1.22,2.64,3.19,3.18,5.68,4.06Z"/>
  <path class="cls-20" d="M136.13,322.82q-6.9,2.64-13.79,5.27c-.88-1.42,6.07-10.11,7.3-11.77q3.25,3.25,6.49,6.49Z"/>
  <path class="cls-5" d="M657.89,182.44c1.1,4.47-3.32,2.83-5.68,5.68-.27-.18-2.96-.62-3.25-.81-4.22-2.82-6.3-6.61-9.33-5.68-.85-.55-.15-1.88-.41-2.43,5.12,1.18,5.37-3.79,5.68-4.06,5.45-2.46,8.01,3.69,8.52,4.06.46.32,2.91-.32,3.25,0,1.89,1.78-.09,1.5,1.22,3.25Z"/>
  <path class="cls-12" d="M655.46,192.18c-2.74-2.25.72-1.35-3.25-4.06,2.37-2.85,6.78-1.21,5.68-5.68,9.97,13.26,1.19,7.52-2.43,9.74Z"/>
  <g>
    <path class="cls-17" d="M636.79,171.08c6.78.33.18,3.21,2.43,8.11.25.55-.44,1.89.41,2.43,3.03-.93,5.11,2.86,9.33,5.68-3.48,2.41-4.1,0-4.46,0-11.17.22-6.91,8.4.41,6.09-8.09,6.68,9.16,6.35,10.55-1.22,3.62-2.22,12.4,3.52,2.43-9.74-1.31-1.75.67-1.47-1.22-3.25-.34-.32-2.79.32-3.25,0-.51-.36-3.07-6.52-8.52-4.06.31-.26,1.16-2.76,3.25-2.43,20.39-5.96,36.71,31.02,15.01,21.91-6.95,7-9.06,12.36-7.71,22.31.22,1.64,3.23.84.81,5.68,3.77.27,2.34,4.42,5.27,3.65,2.72-.71,8.48-15.91,6.49-19.47,12.97,7.75-.49,18.92,10.14,28-17.49,13.15,2.35,21.49,1.62,30.02-17.91,38.33,12.84,37.14,10.55,62.89-4.31-12.45-8.2-1.56-16.63.81-9-30.34-17.16-32.96-16.63,2.03-2.18,12.4-24.08,41.6-35.7,49.5-.91,2.45-10.48,16.51-11.36,17.04-1.38.83-5.44-1.12-8.52-.41-.24-12.09,13.14-27.98,13.39-29.62,1.16-7.52-16.14,16.89-25.97,13.79-1.1-12.23,14.66-21.05,14.61-31.65-.1-18.54-13.03.64-14.2.41-3.26-.64,5.45-19.39,14.61-9.74,33.08-3.8,17.61-31.25,5.68-32.46-6.67-.68-6.18,16.33-15.82,2.84-2.38-3.33-8.59-22.94-7.3-27.59-15.27-13.61,12.34-5.71,26.37-19.07q1.83,5.48,3.65,10.95c-.87,1.76-5.59,11.51-5.68,12.17-1.25,9.11,13.74,7.83,19.88,6.09,2.15-.61,14.25-10.72,15.42-10.55,1.02.15,5.04,11.94,17.04,3.25,6.82-4.94,6.51-16.54,10.95-22.31-8.26-15.84-25.12-11.66-22.72-1.62-14.23,6.82-8.95-5.94-15.82-7.71-1.14-.29-27.91-1.52-17.85-8.11,1.06-.69,10.67.14,9.33-3.65-2.17-6.12-8.38,6.02-7.3-10.55,3.05-2.95-.52,3.61,10.14,2.03,7.65-1.13,15.43-12.6,12.98-20.29q-9.53-.81-19.07-1.62c3.73-6.29,3.9-9.05,4.06-16.23.06-2.67-.62-4.84-.81-7.3-1.11-14.45-5.74-19.13,1.22-14.61.98-1.65,7-2.51,8.52-2.43Z"/>
    <path class="cls-12" d="M630.71,307.41c5.17-2.2,18.51,25.97,8.52,36.92-20.7,12.63-10.3,3.44-9.74-10.55.25-6.14-3.28-24.46,1.22-26.37Z"/>
    <path class="cls-17" d="M648.96,187.31c.28.19,2.98.63,3.25.81,3.97,2.7.51,1.8,3.25,4.06-1.39,7.57-18.64,7.9-10.55,1.22-7.32,2.31-11.57-5.87-.41-6.09.37,0,.98,2.41,4.46,0Z"/>
    <path class="cls-16" d="M623.4,235.19c2.79-1.8,1.52,5.59-.41,2.03-.2-.37-.13-1.68.41-2.03Z"/>
    <path class="cls-18" d="M632.33,235.19c1.21-.49,1.78,1.23.81,1.62-1.21.49-1.78-1.23-.81-1.62Z"/>
  </g>
  <path class="cls-16" d="M431.49,311.46c3.68.78,6.81,1.1,10.55.81-4.58,9.03-10.87,16.46-17.04,24.34-6.24-2.79-12.72-3.67-19.47-3.25-1.69-2.37.6-1.36.81-1.62,11.49-5.43,16.44-9.99,22.72-21.1,2.52,2.27,2.31.78,2.43.81Z"/>
  <path class="cls-15" d="M452.59,296.05c-.37,7.93,6.35,3.37,11.36,5.68-2.78,4.08-3.08,6.29-7.3,8.11-17.26,7.46-9.54-5.18-4.06-13.79Z"/>
  <path class="cls-20" d="M439.61,292.8c3.21,1.25,6.18,1.49,6.49,1.62-3.16,6.09-15.55,10.86,0,8.11-.64,2.16-.78,1.54-.81,1.62-7.36,1.75-8.11-2.44-13.79,7.3-.13-.03.09,1.46-2.43-.81.98-1.73,8.04-15.67,4.87-14.61,2-.8,4.28-.85,4.06-3.25.37.15,1.24-.15,1.62,0Z"/>
  <path class="cls-12" d="M445.29,304.16c-1.16,3.32-1.58,4.83-3.25,8.11-3.74.29-6.87-.03-10.55-.81,5.69-9.74,6.43-5.55,13.79-7.3Z"/>
  <path class="cls-20" d="M467.2,296.05c-.06,2.45-2.03,3.89-3.25,5.68-5.01-2.31-11.73,2.25-11.36-5.68,4.72-.34,9.98.47,14.61,0Z"/>
  <path class="cls-19" d="M446.1,302.54c-15.55,2.75-3.16-2.02,0-8.11.3.12,1.33-.4,2.43,1.22.33,1.26-2.03,5.53-2.43,6.9Z"/>
  <path class="cls-18" d="M361.71,388.55c-1.58,7.12,3.08.97,5.27.81,8.61-.61-5.26,4.45-4.46,6.49-8.38,2.74-8.91,1.93-17.04,6.49l-12.98.81c1.2-2.39,1.41-5.85,1.62-6.09.99-1.09,6.74.09,5.68-3.65,2.83-.28,5.01.87,5.27.81,5.83-1.35,9.14-6.55,16.63-5.68Z"/>
  <g>
    <path class="cls-6" d="M405.53,333.37c6.75-.42,13.23.46,19.47,3.25,1.16.52,5.51,3.22,6.49,4.06,4.03,3.45,8.28,10.33,9.74,15.42,7.99,27.96-22.3,43.95-46.25,37.33-6.13-1.7-12.02-6.82-17.04-10.55-.06-.26.08-.57,0-.81-.23-.72-7.36-5.63-8.93-7.3,2.31-7.23,2.05-10.19,2.43-17.04,2.68,1.07,3.52-4.58,5.68-7.71,6.29-9.08,17.33-15.94,28.4-16.63Z"/>
    <path class="cls-2" d="M450.16,365.83c.12,2.45-.56,3.24-.81,4.87-1.07,6.87-5.17,12.88-9.74,17.85-.43.47-1.14,1.16-1.62,1.62-12.42,11.9-25.9,14.68-42.2,9.74l-.81-6.49c23.95,6.63,54.24-9.37,46.25-37.33,7.39-5.56,8.63,3.87,8.93,9.74Z"/>
    <path class="cls-19" d="M394.98,393.42l.81,6.49c-5.97-1.81-13.15-5.23-16.63-10.55-2.84,2.09-6.02,3.05-9.33,4.06,2.27-4.31,6.97-5.28,8.11-10.55,5.02,3.73,10.91,8.85,17.04,10.55Z"/>
  </g>
  <path class="cls-20" d="M377.94,382.06c.08.24-.06.56,0,.81-1.15,5.27-5.85,6.24-8.11,10.55-2.41.73-4.89,1.65-7.3,2.43-.8-2.04,13.07-7.1,4.46-6.49-2.2.16-6.85,6.31-5.27-.81.5-2.25.78-1.54.81-1.62q7.71-2.43,15.42-4.87Z"/>
  <path class="cls-12" d="M500.47,113.47c-.07,1.34.37,2.83.81,4.06-.62,3.34.48,6.52.81,9.74.5,4.84.91,9.75,1.22,14.61q-9.13-1.42-18.26-2.84c11.32-27.37,7.41-22.8-6.09-1.22-11.19-1.23-14.88.28-7.71-6.49,3.22-3.04,20.61-13.65,25.97-17.04,1.87-1.19,3.1-.72,3.25-.81Z"/>
  <path class="cls-18" d="M507.77,125.64c-2.06,1.16-2.96,2.3-5.68,1.62-.33-3.22-1.43-6.4-.81-9.74.1.27,1.09-1.66,1.62,4.46,1.78-4.29,3.33,1.51,4.87,3.65Z"/>
  <g>
    <path class="cls-18" d="M623.81,211.65c-2.76,4.66-5.59,6.58-9.74,9.74-4.19,3.19-7.88,4.36-11.36,6.49-6.16-1.54,16.7-13.33,14.61-25.97.52-3.24,10.58-2.27,9.74-6.49h.81c-.16,7.17-.33,9.94-4.06,16.23Z"/>
    <path class="cls-17" d="M608.39,234.37q-7.3-.2-14.61-.41c2.22-3.03,5.72-4.12,8.93-6.09,3.48-2.13,7.17-3.3,11.36-6.49,1.89,3.35-4.94,5.82-5.68,12.98Z"/>
    <path class="cls-20" d="M627.87,195.42h-.81c-1.92-.82-8.74,2.11-9.33,1.62-.7-.57-.32-5-1.22-7.3q5.27-.81,10.55-1.62c.19,2.46.87,4.63.81,7.3Z"/>
    <g>
      <path class="cls-5" d="M602.71,169.46c3.3,3.65,6.42,7.05,8.93,11.36-5.63-1.04-17.86,5.66-23.13,8.93-12.48,7.74-25.05,22.43-26.78,22.72-5.2.86-6.16-11.01-11.77-15.01,13.92-8.4,15.84-21.77,20.69-26.37,11.38-10.79,22.58-4.48,32.05-1.62Z"/>
      <g>
        <path class="cls-12" d="M617.32,201.92c2.09,12.63-20.77,24.43-14.61,25.97-3.21,1.97-6.7,3.06-8.93,6.09q7.3.2,14.61.41c-.15,1.44,3.04.22,2.03,1.62-.57.79-16.01,5.01-18.26,6.9,18.16.41,1.42,35.27-12.17-2.43,13.42-5.36-.7-1.33,1.62-8.93.51-1.68,8.09-3.16,8.11-4.87.04-2.51-6.36-1.66-7.3-4.06-3.73-9.44,31.94-38.52,34.89-20.69Z"/>
        <path class="cls-20" d="M606.36,209.22c10.26-1.54-2.35,10.45-5.68,8.11-3.51-2.46,3.7-7.82,5.68-8.11Z"/>
      </g>
    </g>
  </g>
  <path class="cls-20" d="M299.23,354.47c-2.78,1.84-9.79,6.8-9.33,8.93-11.19-.61-18.93,10.22-8.11,3.25,1.77.09-3.07,8.7,11.77,1.62-2.98,5.45-5.16,11.55-8.11,17.04-.1-.02.09.67-1.22,1.62l-1.22-2.03-.41-10.14c-4.12,18.82-8.82,26.1-6.49,8.93l-4.46,10.55c-.46-.12-1.25.14-1.62,0l2.03-11.36q-3.04,4.87-6.09,9.74c-.13-.12-1.53-.71-1.62-.81-.66-.71,1.25-2.1.41-2.43-1.78-.7-5.76,2.38-6.09,2.43-6.3,1.09-7.48.13-12.98,0,.21-.33.65-5.15,2.84-7.3,1.1-1.08,27.24-12.31,27.18-14.2-.04-1.21-2.86-1.07-3.25-1.62-.31-.44,3.89.35-5.68-6.9,3.15-2.94,10.1-9.74,12.17-11.36,1.06-.83,7-5.23,7.71-4.87q-1.22,4.06-2.43,8.11c11.4-6.05,24.35-14.18,33.68-24.34-1.77,9.59-20.86,19.19-21.1,20.69-.52,3.33,4.54,1.95,2.43,4.46Z"/>
  <path class="cls-18" d="M304.91,373.13c-3.16,4.9-8.68,12.42-8.52,17.04-8.89,1.7-12,7.41-21.91,6.49-3.26-.3-2.66-2.39-2.84-2.43l4.46-10.55c-2.33,17.17,2.37,9.89,6.49-8.93l.41,10.14,1.22,2.03c1.3-.96,1.12-1.64,1.22-1.62,1.29.25.62,1.7,1.22,1.62.63-.09-.1-1.07,1.22-1.62.07-.03.13,1.4,1.22.81,1.14-.62,10.89-12.4,12.58-14.61l3.25,1.62Z"/>
  <path class="cls-19" d="M323.57,385.3c.96,1.76,2.87,2.63,2.03,3.25-6.88,3.37-14.31,6.24-21.1,9.74-1.33.69-12.66,10.27.41-6.49,5.53-7.08,11.82-9.81,12.17-10.55l6.49,4.06Z"/>
  <path class="cls-16" d="M317.89,356.9c-.09.23.08.56,0,.81-3.32-.15-10.08,10.92-12.98,15.42l-3.25-1.62c1.89-2.47,9.26-14.04,12.98-19.47,1.75,1.5-1.46,5.42,3.25,4.87Z"/>
  <path class="cls-18" d="M270.02,394.23c-.54-.2.02,2.32-4.06-1.62q3.04-4.87,6.09-9.74l-2.03,11.36Z"/>
  <path class="cls-18" d="M264.33,391.8c1.8,3.26-7.82,2.4-5.68,0,.32-.06,4.3-3.14,6.09-2.43.84.33-1.06,1.73-.41,2.43Z"/>
  <g>
    <path class="cls-2" d="M513.45,281.44c-7.78,5.34-29.1,13.36-38.14,14.61-.4.06-1.5-.67-8.11,0-4.63.47-9.89-.34-14.61,0-5.49,8.62-13.2,21.26,4.06,13.79-.03,5.92-10.34,20.89-15.82,25.16-4.98,3.87-8.79,3.33-9.33,5.68-.98-.84-5.33-3.54-6.49-4.06,6.17-7.88,12.46-15.32,17.04-24.34,1.67-3.28,2.08-4.8,3.25-8.11.03-.09.17.54.81-1.62.4-1.36,2.76-5.64,2.43-6.9-1.11-1.62-2.13-1.09-2.43-1.22-.31-.13-3.28-.37-6.49-1.62,1.44-3.1,5-2.74,4.06-6.49,2.55.48,6.48,1.46,8.93,1.62,46.35,3.03,74.97-36.75,72.22-40.17-.74-.93-4.32-.17-5.68-.41.24-.72.78-2.31.81-2.43,7.17,2.08,7.3.51,8.93-8.11q3.65-.41,7.3-.81c-.58,18.41-6.99,34.64-22.72,45.44Z"/>
    <path class="cls-19" d="M533.74,198.67c-.61,2.58-1.95,4.95-1.62,7.71,1.55,3.34,3.01,9.04,3.25,12.58-8.45,6.38-4.6,7.81-6.49,17.85-1.63,8.63-1.76,10.19-8.93,8.11,2.32-9.23,2.13-21.36.81-30.84,11.82,3.73,5.48-6.13-2.43-19.47-2.47-4.17-5.01-8.43-8.11-12.17,7.82-3.94,10.86,2.01,12.17,2.43.87.28,1.1,1.01,2.03.81,19.33-16.93,1.63,2.17,2.03,6.09.3,2.95,3.71,8.79,7.3,6.9Z"/>
    <path class="cls-12" d="M504.52,153.23c6.66-.28,2.26,4.14,2.43,4.46.85,1.59,15.08,14.87,17.85,19.88-.75,1.57-2.19,5.49-2.43,7.3-1.31-.43-4.36-6.38-12.17-2.43-4.29-5.17-9.16-9.48-14.61-13.39,4.6-6.99,15.33-1.12.81-13.39,1.93-1.5,5.98-1.72,8.11-2.43Z"/>
    <path class="cls-18" d="M535.36,218.96c.38,5.78,1,11.2.81,17.04q-3.65.41-7.3.81c1.89-10.04-1.96-11.47,6.49-17.85Z"/>
    <path class="cls-16" d="M443.67,286.31c.95,3.75-2.62,3.39-4.06,6.49-.38-.15-1.25.15-1.62,0-6.67-2.7-15.13-5.63-14.61-13.79,6.29,3.67,13.14,5.96,20.29,7.3Z"/>
    <g>
      <path class="cls-13" d="M493.16,153.23c1.31,2.86,3.09,2.3,3.25,2.43,14.52,12.27,3.78,6.4-.81,13.39,5.44,3.9,10.31,8.22,14.61,13.39,3.11,3.74,5.64,8,8.11,12.17-5.72,1.15.49,5.46,2.43,19.47,1.31,9.48,1.51,21.61-.81,30.84-.03.12-.57,1.71-.81,2.43-6.05,18.42-28.29,30.76-45.85,35.7-7.65,2.15-19.51,2.94-20.69,4.87-2.45-.16-6.37-1.14-8.93-1.62-7.15-1.34-13.99-3.63-20.29-7.3-.1-.06-.21-.7-1.62-1.62-14.77-9.64-19.54-18.41-28.4-32.46-3.11-9.33-6.16-18.84-5.68-28.81-1.47-1.28-1.54.39-1.62.41-4.99.72-5.11,6.1-.81-4.87,2.29-5.83,3.96-11.46,5.68-17.45,6.56-12.55,16.51-23.21,28.4-30.84-16.25,3.12,1.75-12.23,14.61-19.88.25-.15,4.12-.38,5.68-.81l1.62-.81c3.92.91,8.45-.88,12.17-.81,7.28.13,27.94,4.6,33.68,8.93,6.11,4.61-1.2,5.64,6.09,3.25Z"/>
      <path class="cls-20" d="M452.59,287.93c1.19-1.93,13.04-2.72,20.69-4.87,17.55-4.94,39.8-17.28,45.85-35.7,1.37.24,4.94-.52,5.68.41,2.75,3.42-25.87,43.2-72.22,40.17Z"/>
      <path class="cls-12" d="M518.32,194.61c7.92,13.34,14.26,23.21,2.43,19.47-1.94-14.01-8.15-18.32-2.43-19.47Z"/>
    </g>
  </g>
  <path class="cls-12" d="M439.61,388.55c4.56-4.97,8.67-10.98,9.74-17.85,23.39-14.11,18.87-6.52,3.25,9.33-.47.48,1.38,3.92-8.52,8.52-.67.31-3.5.6-4.46,0Z"/>
  <g>
    <path class="cls-3" d="M346.29,343.92c28.22,5.84,21.03,40.67-4.46,46.25-5.74,1.26-8.73-3.3-7.71,3.25-2.35.16-4.9.67-7.3.81-.13,0,.78-2.14-2.03-1.62-3.45,1.65-6.75,4-10.14,5.68-4.16,2.05-21.07,10.85-23.13,12.17-.28.18.38,1.77-4.46,4.87v-.81c-1.26-5.82.48-.68,3.25-4.46,1.49-2.04,11.17-15.26,11.36-16.23.27-1.32-8.73-1.87,3.25-2.03-13.07,16.76-1.74,7.18-.41,6.49,6.79-3.5,14.22-6.37,21.1-9.74.84-.62-1.07-1.49-2.03-3.25-1.73-3.15-4.53-5.49-5.68-8.93-1.69-5.06-1.53-13.57,0-18.66.08-.25-.09-.58,0-.81,1.46-3.93,3.89-5.96,7.3-8.11,8.07-5.08,12.72-4.29,21.1-4.87Z"/>
    <path class="cls-16" d="M323.57,385.3l-6.49-4.06c.5-1.06-.9-4.61.81-4.87,1.15,3.44,3.95,5.77,5.68,8.93Z"/>
    <path class="cls-16" d="M378.75,337.43l-8.93,7.71c1.85,4.05,1.86,8.26,1.62,12.58-.38,6.85-.13,9.81-2.43,17.04-1.71,5.37-5.07,8.74-6.49,12.17-.03.08-.31-.63-.81,1.62-7.5-.86-10.8,4.33-16.63,5.68-.26.06-2.44-1.09-5.27-.81-2.46.24-4.15-.1-5.68,0-1.02-6.54,1.97-1.99,7.71-3.25,25.5-5.58,32.69-40.41,4.46-46.25,13.35-.92,17.06,2.73,26.78-5.68,1.73.02,4.01-.38,5.68-.81Z"/>
  </g>
  <g>
    <path class="cls-5" d="M555.65,123.21c2.25,2.74,15.58,23.36,10.95,25.16-3.72,1.44-1.37-5.45-2.03-7.71-3.48-11.99-6.04,7.22-4.06,8.93,1.73,1.49,9.05-6.37,1.62,7.71-3.63,1.95-1.27-7.08-4.06-8.52-6.91,25.54-30.52,47.41-6.49,32.46,2.44-3.84,10.62-22.84,11.36-23.94,1.94-2.85,2.81-3.71,6.49-3.25,5.33,1.82,6.94-.06,7.3,0,4.82.75,9.78,1.62,14.61,2.43,4.75.8,8.97,3.46,13.79,4.06q5.27,5.48,10.55,10.95c-6.41,3.62-7.31-1.77-10.95-2.84-2.09-.61-1.92.84-2.03.81-9.47-2.86-20.67-9.17-32.05,1.62-4.85,4.6-6.77,17.97-20.69,26.37,5.61,4.01,6.57,15.87,11.77,15.01,1.73-.29,14.29-14.98,26.78-22.72,5.26-3.26,17.5-9.97,23.13-8.93,1.67,2.88,3.65,5.81,4.87,8.93.9,2.31.52,6.73,1.22,7.3.6.49,7.41-2.44,9.33-1.62.85,4.22-9.22,3.25-9.74,6.49-2.95-17.83-38.63,11.26-34.89,20.69.95,2.4,7.34,1.55,7.3,4.06-.03,1.71-7.6,3.19-8.11,4.87-2.32,7.6,11.79,3.57-1.62,8.93,13.59,37.7,30.34,2.85,12.17,2.43,2.24-1.89,17.69-6.11,18.26-6.9,1.01-1.4-2.18-.18-2.03-1.62.74-7.16,7.57-9.64,5.68-12.98,4.15-3.16,6.98-5.08,9.74-9.74q9.53.81,19.07,1.62c2.44,7.69-5.33,19.15-12.98,20.29-10.67,1.58-7.09-4.98-10.14-2.03-1.08,16.56,5.13,4.43,7.3,10.55,1.34,3.79-8.28,2.96-9.33,3.65-10.06,6.59,16.71,7.82,17.85,8.11,6.87,1.77,1.59,14.53,15.82,7.71-2.4-10.03,14.46-14.21,22.72,1.62-4.44,5.77-4.14,17.38-10.95,22.31-12,8.69-16.02-3.1-17.04-3.25-1.16-.17-13.27,9.94-15.42,10.55-6.14,1.74-21.13,3.02-19.88-6.09.09-.67,4.81-10.41,5.68-12.17q-1.83-5.48-3.65-10.95c-14.03,13.36-41.64,5.46-26.37,19.07-1.28,4.65,4.92,24.26,7.3,27.59,9.64,13.49,9.15-3.52,15.82-2.84,11.93,1.21,27.4,28.66-5.68,32.46-9.15-9.65-17.86,9.09-14.61,9.74,1.17.23,14.1-18.94,14.2-.41.06,10.6-15.7,19.42-14.61,31.65,9.83,3.09,27.12-21.32,25.97-13.79-.25,1.64-13.63,17.52-13.39,29.62,3.08-.71,7.14,1.24,8.52.41.88-.53,10.45-14.59,11.36-17.04,11.63-7.89,33.52-37.1,35.7-49.5-.53-34.99,7.63-32.37,16.63-2.03,8.44-2.37,12.32-13.26,16.63-.81,2.25,6.49-.49,6.38-.81,11.77-.25,4.14-.06,12.7-.81,16.23-.36,1.7-2.4,2.27-2.43,2.43-2.93,12.69-18.47,64.09-17.85,70.6.07.75,2.73,7.6,4.06,5.27-1.18,2.77-1.56,4.94-2.43,7.71-.81,17.35-1.11,34.8-4.06,51.93q-8.93,6.29-17.85,12.58c1.56-1.73,2.79-3.95,4.87-5.27-5.92-10.12-3.64-43.18-4.06-45.44-1.51-8.18-12.83.16-8.11-10.55-6.58-.73-2.65-5.96-5.27-6.9-1.33-.48-7.58,4.97-15.42-.81-3.61,4.78-25.21,20.57-27.59,21.1-8.73,1.93-2.19-6.92-8.93-7.3q-17.85,8.11-35.7,16.23c-5.79,1.65-15.14,3.77-20.29,5.68-2.59.96-4.55,4.74-4.87,4.87-6.61,2.61-11.75,2.44-15.42,3.25-9.19,2.03-11.44,7.27-32.86-2.43,6.92-3.16,10.54-5.33,19.47-6.9-15.38-1.09-22.42,7.35-30.02,11.77-1.49.86-2.81,2.49-4.46,3.25h-5.68c-16.22-12.59-27.73-4.43-45.44-6.49-5.52,1.49-31.41,9.94-33.27,9.74-8.23-.91-16.38-18.56-16.63-19.88-1.45-7.55,9.13-15.01-9.33-15.82-3.93-.17-26.79,3.29-36.52,2.43-3.77-.17-26.58,15.07-26.37,16.63.36,2.72,3.64-.99,6.49,4.06,6.45,11.41-5.73,8.89-7.3,12.98,2.03,9.17-2.29,12.41-3.25,19.88-3.36-2.58-26.63-26.85-26.78-28.81-.04-.59,5.88-9.23,4.46-10.95-8.23-3.31-19.7-2.56-21.1-8.93-11.69,9.45-15.53-3.68-28.81-15.01.12-5.81-.16-11.64,0-17.45.12-4.37.95-8.66.81-12.98.38-.05-1.76-.57,7.3-2.43,7.76-1.6,15.19-4.07,22.72-6.49-5.03,20.03.22,5.98,3.25,3.25,4.46,7.54,16.92-4.97,22.72-5.68.51-.06,1.11-.05,1.62,0,13.81,1.45-14.81,9.2,12.58,13.79,1.92-.18,1.88-1.89,2.03-3.25h.81q1.01,5.68,2.03,11.36c-2.5-11.55,17.6-12.64,30.43-23.53-2.44,6.21-6.95,11.42-8.93,17.85-.19.22-5.15,2.53-1.22,4.06,2.13.83,18.66-9.04,24.75-18.66-1.74,3.31-3.06,7.24-4.87,10.55-.17.31-4.99,4.47-2.84,5.68q13.39-5.68,26.78-11.36c1.73,1.14-2.76,6.6-4.46,9.74-.71,1.31-4.9,6.99-4.87,7.71.33,7.48,28.23-14.67,29.21-16.23.52-.82-1.72-1.8-.41-2.84,3.33,5.38,7.65-3.86,12.58.81-1.16.44-18.57,12.13-20.69,13.79-20.21,15.82,15.44-6.25,29.62-14.61.43.03-2.44,1.21,7.3,1.62-6.77,10.49-14.95,20.06-21.91,30.43,2.62,3.57,18.54-12.92,22.72-10.14-.15.18.35.6-2.43,4.06-12.86,15.96-18.09,25.82-1.22,4.06,10.96,4.77,41.59-10.98,17.45-17.04,4.04-3.15,10.98-9.19,15.01-11.36,18.26-9.81,25.15-2.31,6.9-9.33l15.42-11.77c6.56-2.59,14.19-15.71,21.1-20.29.68,2.06,2.85,4.46,4.06,6.49-.84.06-1.79-.32-2.43.41-2.43,2.72-13.28,22.93-18.66,29.21,5.07,7.53,6.08-.33,14.61-2.84-.91,1.83-1.55,3.92-2.43,5.68-.26.53-.56,1.1-.81,1.62-3.25,6.65-7.25,12.95-8.93,20.29-3.65,5.26-52.68,25.27-61.67,32.05,8.58-3.24,27.42-9.29,32.05-14.2,6.23,3.08,1.99-2.27,4.87-2.43,4.2-.23-.26,4.21.41,5.27,1.07,1.7,25.84-10.39,31.65-22.31.42-.86,3.16-7.69,3.25-8.11,1.55,4.75,5.44-7.24,6.09-7.3.85-.09-1.2,5.81,13.39-5.27.45-4.67-12.25,9.08-8.93.81-7.1,3.98.16-3.48-7.3-4.46,4.59-3.66,12.38-6.22,17.45-10.55,8.19.43,16.54,1.43,24.75.81,15.16-1.14,32.89-8.27,42.2-20.69,4.97-6.64,14.23-26.19,4.06-22.31-2.28-2.24,4.53-.6,5.68-3.65.87-2.31-2.93-27.01-10.55-19.07-6-16.49-30.24-27.9-46.66-23.53-1.58.42-22.68,12.45-26.37,14.61,4.51-8.31,11.71-11.05,12.17-11.77,1.27-1.97-.26-5.2,0-5.68.35-.66,3.47.05,9.74-10.55,5.92-6.54,11.07-6.71,10.55-10.95,15.73-10.8,22.14-27.03,22.72-45.44.18-5.84-.43-11.26-.81-17.04-.23-3.54-1.69-9.24-3.25-12.58-.33-2.76,1.01-5.13,1.62-7.71.59-.31,7.46-9.74,4.46-9.74-3.41,3.66-3.51,5.71-4.46,9.74-3.6,1.89-7.01-3.95-7.3-6.9-.39-3.92,17.3-23.02-2.03-6.09-.93.2-1.16-.53-2.03-.81.25-1.81,1.69-5.73,2.43-7.3,5.61-11.78,24.93-35.59,19.07-35.7-1.59,4.76-4.79,2.8-11.77,2.43-2.41-.12-5.7-.49-8.11-.81-2.49-.33-5.01-1.42-7.71-.81-1.53-1.32-1.7-1.74.41-1.62,11.09.96,18.62-4.62,12.17-4.46-.86-2.86,10.29-.88,10.95-1.22.41-.21,4.87-7.28,5.68-7.3.4-.01,3.2,3.52,6.49.81,2.34-1.93-1.53-6.05,3.65-5.68Z"/>
    <g>
      <path class="cls-19" d="M474.5,478.62c-3.48,1.59-7.37,2.48-10.55,4.87,7.6-4.42,14.64-12.86,30.02-11.77-8.93,1.57-12.56,3.73-19.47,6.9Z"/>
      <path class="cls-19" d="M463.95,429.12c-5.81,11.93-30.58,24.01-31.65,22.31-.67-1.06,3.79-5.51-.41-5.27-2.88.16,1.36,5.51-4.87,2.43-4.63,4.91-23.47,10.96-32.05,14.2,8.99-6.78,58.02-26.8,61.67-32.05,5.84,2.83,3.09-1.84,7.3-1.62Z"/>
      <path class="cls-12" d="M467.2,421.01c1.75-9.17-.92-6.49-1.62-10.55.25-.52.55-1.1.81-1.62,1.59-1.28,2.4-2.74,4.06-4.06,7.46.98.2,8.44,7.3,4.46-3.33,8.27,9.38-5.48,8.93-.81-14.59,11.08-12.54,5.19-13.39,5.27-.64.07-4.54,12.05-6.09,7.3Z"/>
      <path class="cls-15" d="M390.92,409.65c-14.18,8.36-49.83,30.43-29.62,14.61,2.12-1.66,19.53-13.36,20.69-13.79,2.89-1.08,5.88-1.01,8.93-.81Z"/>
      <path class="cls-20" d="M450.56,455.9c.15-.03,1.81,1.2,2.84,1.22-31.94,14.08-43.86,14.36-5.27,1.22,2.03-.69,2.26-2.4,2.43-2.43Z"/>
      <path class="cls-10" d="M533.74,198.67c.96-4.02,1.05-6.08,4.46-9.74,2.99,0-3.87,9.43-4.46,9.74Z"/>
      <path class="cls-17" d="M242.83,423.44c1.32.57-.07,3.86-1.22,2.03-.42-.66,1.1-2.08,1.22-2.03Z"/>
      <path class="cls-12" d="M478.15,404.78c.14-.06,1.15,1.82.81,2.43-1.3,2.32-1.8-2-.81-2.43Z"/>
      <path class="cls-4" d="M563.36,292.8c1.32.57-.07,3.86-1.22,2.03-.42-.66,1.1-2.08,1.22-2.03Z"/>
      <path class="cls-16" d="M482.21,422.63c.69.3,1.01,2.47-.81,2.43-.59-.01.67-2.5.81-2.43Z"/>
      <g>
        <path class="cls-12" d="M501.68,420.2c8.21-.36,15.21-.03,22.31,2.03-2.56,1.52-33.96,21.85-33.27,13.79,3.52-2.93,6.34-10.63,10.95-15.82Z"/>
        <path class="cls-2" d="M504.12,422.63c1.91-.56,8.35.6,8.52,1.22-23.52,17.75-12.11-.16-8.52-1.22Z"/>
      </g>
    </g>
  </g>
  <path class="cls-20" d="M421.76,277.38c1.42.92,1.52,1.57,1.62,1.62-.52,8.17,7.94,11.1,14.61,13.79.22,2.4-2.06,2.45-4.06,3.25-9.6,3.83-17.73,9.79-26.78,14.61.09-.23-.09-.57,0-.81,4.26-11.61,3.87-20.39,4.87-32.46,4.34,3.74,6.1,5.23,9.74,0Z"/>
  <path class="cls-20" d="M248.11,321.2c1.33,1.01,1.53,1.56,1.62,1.62-4.76.19-3.83,4.74-7.3,6.49-3.28-5.27-4.75-8.34-5.68-14.61-.08-.52-1.76-2.78-.41-6.49,3.42,4.79,7.02,9.4,11.77,12.98Z"/>
  <path class="cls-16" d="M257.84,326.88l-3.65,4.87c2.89.55,18.43,1.8,19.07,2.84-.9,1.23-1.58,1.13-1.62,1.22-12.1,7.35-30.91,8.83-31.65,17.85-1.49-1.55.63-4.29-.41-4.87q-5.88.81-11.77,1.62c17.52-11.1,32.28-15.91,20.29-20.29,1.8-1.52,4.44-2.68,4.06-5.68.77.38,5.38,2.36,5.68,2.43Z"/>
  <path class="cls-20" d="M249.73,322.82c.63.4,2.3,1.56,2.43,1.62.38,3-2.26,4.16-4.06,5.68-3.32,2.81-3.87,2.29-4.06,2.43.34-2-1.54-2.31-1.62-2.43-.12-.19.12-.62,0-.81,3.47-1.75,2.55-6.31,7.3-6.49Z"/>
  <path class="cls-20" d="M400.66,281.44c-1.67,14.36-5.89,23.05-13.79,34.89-12.42,3.97-20.63,15.15-33.27,14.61.85-.97,1.69-2.17,2.43-3.25,4.9,2.43,8.39-8.97,15.42-8.52,2.74-6.46,9.1-12.36,12.98-20.69,1.53-.59,2.33-2.02,3.25-3.25,3.06-4.12,9.38-8.11,10.55-12.98l2.43-.81Z"/>
  <path class="cls-20" d="M356.03,327.69c-.75,1.07-1.58,2.28-2.43,3.25-.96,1.1-4.51,4.63-4.87,4.87-1.16.78-2.08,1-3.25,1.62-3.6,1.94-12.66,4.99-17.04,5.68,1.44-2.6,2.1-5.4,3.25-8.11,9.92.89,13.36-3.88,19.47-9.74,3.9-3.74,6.77-6.18,9.74-10.95.54-.87,10.1-23.95,8.11-12.98-.26,1.45-10.75,23.16-12.98,26.37Z"/>
  <path class="cls-18" d="M326.01,327.69c-.58,2.16-.9,3.48-1.62,5.68-7.85,9.7-11.43,12.61-21.1,19.47-2,1.42-3.88,1.5-4.06,1.62,2.11-2.52-2.96-1.13-2.43-4.46.24-1.5,19.33-11.1,21.1-20.69.85-.93,1.6-2.3,2.43-3.25.81-.92,1.69-1.61,2.43-2.43l3.25,4.06Z"/>
  <path class="cls-18" d="M373.07,338.24c-9.72,8.41-13.43,4.76-26.78,5.68-8.37.58-13.02-.21-21.1,4.87-.58-2.73,2.45-4.25,3.25-5.68,4.38-.69,13.44-3.74,17.04-5.68,1.39,2.56,17.46.54,21.91-.81.97.05,5,.86,5.68,1.62Z"/>
  <path class="cls-20" d="M314.64,352.04c-3.73,5.43-11.09,17-12.98,19.47-1.69,2.21-11.44,13.99-12.58,14.61-1.09.59-1.15-.84-1.22-.81,5.6-11.85,17.21-19.54,21.91-31.65,4.23-5.77.37-3.36-3.25,0-.96-.18-1.7.33-2.43.81l-.81-1.62c9.66-6.87,13.25-9.77,21.1-19.47-.84,2.57-1.45,10.28-2.43,11.77-3.86.76-5.36,4.07-7.3,6.9Z"/>
  <path class="cls-16" d="M351.16,325.26c-6.11,5.86-9.56,10.63-19.47,9.74.51-1.21,1.63-6.71,2.84-7.3.44-.22.34,1.75.81,1.62,5.27-1.37,10.39-3.4,15.82-4.06Z"/>
  <path class="cls-16" d="M326.01,327.69l-3.25-4.06c.11-.12.7-3.12.81-3.25,1.7-1.86,3.28-3.73,4.87-5.68,2.04,4.11-1.36,9-2.43,12.98Z"/>
  <g>
    <path class="cls-16" d="M386.86,267.64c-25.63-2.75-22.13,21.29-14.2,22.72,2.18.39,12.17-11.42,24.75-11.36.05,1.69,1.09,2.09.81,3.25-1.17,4.87-7.49,8.86-10.55,12.98-2.72-1.09-2.97-.26-3.25,3.25-3.89,8.33-10.24,14.23-12.98,20.69-7.03-.45-10.51,10.95-15.42,8.52,2.24-3.22,12.72-24.93,12.98-26.37,1.98-10.96-7.57,12.11-8.11,12.98-2.96,4.77-5.84,7.22-9.74,10.95-5.44.66-10.55,2.69-15.82,4.06-.47.12-.37-1.84-.81-1.62-1.21.59-2.33,6.09-2.84,7.3-1.14,2.71-1.81,5.51-3.25,8.11-.79,1.43-3.83,2.95-3.25,5.68-3.42,2.15-5.84,4.19-7.3,8.11-4.7.56-1.5-3.37-3.25-4.87,1.94-2.83,3.44-6.14,7.3-6.9.98-1.48,1.59-9.19,2.43-11.77.72-2.2,1.04-3.52,1.62-5.68,1.08-3.98,4.48-8.88,2.43-12.98l2.03-4.06c12.82-5.57,18.96-21.14,23.13-26.78,4.04-5.47,8.53-10.3,13.79-14.61,7.26,1.25,9.77-9.27,19.47-1.62Z"/>
    <path class="cls-20" d="M369.01,295.23c5.88,2.06-2.26,1.88-5.27,4.06-4.67,3.37-10.3,12.22-17.04,14.61,4.05-7.35,11.1-12.54,14.2-20.29,2.23,1.37,6.64,1.1,8.11,1.62Z"/>
    <path class="cls-12" d="M369.01,295.23c-1.48-.52-5.88-.25-8.11-1.62,2.5-2.65,14.91-.46,8.11,1.62Z"/>
    <path class="cls-16" d="M387.68,295.23c-.91,1.23-1.72,2.65-3.25,3.25.27-3.51.53-4.34,3.25-3.25Z"/>
  </g>
  <path class="cls-16" d="M227.82,350.41c-.34.21-4.4,1.2-7.3,3.25h-16.63c-2.79-1.33,2-3.04,6.09-6.09-4.85-1.26,6.75-.99,16.63-4.46,7.5-2.64,11.45-6.1,17.45-10.55.19-.14.74.38,4.06-2.43,12,4.38-2.77,9.18-20.29,20.29Z"/>
  <path class="cls-19" d="M196.98,353.66c1.88-6.56-11.93-8.85-17.04-9.74-.58-.1-1.04,1.77-4.06-.41.03-1.23,7.53.05,10.55-6.9,6.98,9.33,16.68,9.97,17.04,10.95.4,1.09-2.84,8.98-6.49,6.09Z"/>
  <g>
    <path class="cls-24" d="M226.2,312.27c-.87,3.03-1.39,5.86-2.43,8.93-1.76,5.15-3.73,10.33-5.68,15.42-2.18,5.67-6.09,10.91,2.84,2.43,6.08,1.28,14.25-2.18,18.26-6.49.93-1,1.31-2.78,3.25-2.43.08.12,1.96.44,1.62,2.43-6,4.45-9.94,7.91-17.45,10.55-9.88,3.48-21.49,3.2-16.63,4.46-4.09,3.05-8.87,4.75-6.09,6.09h16.63c-2.26,1.59-4.46,2.94-6.49,4.87.9-2.13-8.1-1.62-17.04-3.25.06-.52-.12-1.21,0-1.62,3.65,2.89,6.9-4.99,6.49-6.09-.36-.98-10.06-1.63-17.04-10.95-.22-.29-1.16-3.81-2.43-5.68-4.08-21.02,22.2-42.53,38.14-23.13,1.23,1.49,1.36,6.56,4.06,4.46Z"/>
    <g>
      <path class="cls-12" d="M236.75,314.71c.93,6.27,2.4,9.34,5.68,14.61.12.2-.12.63,0,.81-1.94-.35-2.32,1.43-3.25,2.43-10.58.3-12.47,5.63-21.1,4.06,1.95-5.08,3.92-10.26,5.68-15.42,6.02,1.61,7.31-7.37,12.98-6.49Z"/>
      <path class="cls-15" d="M239.18,332.56c-4.01,4.31-12.17,7.77-18.26,6.49-8.93,8.47-5.02,3.24-2.84-2.43,8.63,1.57,10.51-3.75,21.1-4.06Z"/>
    </g>
  </g>
  <g>
    <path class="cls-5" d="M382,89.94c2.89,1.57,7.82,5.09,9.33,8.11,1.13.33,9.9-5.41,10.95-6.49,8.56-.72,2.14,7.34.41,8.11-2.11.94-9.21-1.72-8.52,3.65.09.68,1.59.33,1.62.41,1.44,4.04,2.41,5.97,3.25,10.55.4,2.17.74,3.15.81,5.68-16.96-3.82-40.69.46-54.77,10.55-8,5.73-15.51,18.78-20.69,21.1-6.19-8.48-8.12-14.45-7.3-25.16,2.36-31.12,38.13-51.05,64.92-36.52Z"/>
    <path class="cls-19" d="M399.85,119.96c.17,5.65-.49,10.92-2.43,16.23-1.29,3.53-8.81,15.06-12.98,16.23,2.85-3.1,4.99-4.47,2.43-5.68.14-.16.63-1.39.81-1.62,1.28-1.64,3.98-3.89,4.87-6.9,3.28-11.16-.7-4.64-4.46-6.9-6.3,5.82-39.14,16.68-40.17,26.37-.96,9.1,5.05,4.64,10.55,6.9-1.81.17-3.84,0-5.68,0-5.1-.03-12.35-.5-17.04-2.43-4.68-1.93-8.43-6.54-11.36-10.55,5.18-2.32,12.69-15.37,20.69-21.1,14.08-10.09,37.81-14.37,54.77-10.55Z"/>
    <path class="cls-20" d="M387.68,145.11c-8.7.48-16.25,9.52-12.58,9.74,4.1-2.33,8.52-4.59,11.77-8.11,2.56,1.21.42,2.58-2.43,5.68-6.37,6.92-16.77,11.3-25.97,12.17-5.5-2.25-11.51,2.2-10.55-6.9,1.03-9.69,33.86-20.56,40.17-26.37,3.76,2.26,7.75-4.26,4.46,6.9-.89,3.01-3.59,5.25-4.87,6.9Z"/>
    <path class="cls-16" d="M387.68,145.11c-.18.24-.67,1.47-.81,1.62-3.25,3.53-7.67,5.79-11.77,8.11-3.67-.22,3.87-9.26,12.58-9.74Z"/>
  </g>
  <path class="cls-12" d="M227.01,175.95c-3.76,2.61-24.1,22.75-25.56,21.91,2.12-7.33-.5-5.74-.41-6.09,1.15-4.42,19.17-12.36,23.53-16.63,1.59-.34,1.7-2.06,2.43.81Z"/>
  <path class="cls-16" d="M320.33,326.07c-.83.95-1.59,2.32-2.43,3.25-9.32,10.16-22.27,18.3-33.68,24.34q1.22-4.06,2.43-8.11c-.71-.36-6.65,4.04-7.71,4.87-4.69-2.36-2.58,2.52-5.27,3.25-.28.07-3.3-1.82-5.68-.81-1.12.47-12.53,11.97-13.39,2.43,1.54-.42,8.05-7.88,9.74-9.74,7.66-1.3,11.54-9.08,14.2-10.55,1.83-1.01,10.05-2.67,14.2-4.06-7.42,6.32-35.88,19.69-7.71,11.36.96-.28,4.07-.27,4.87.81,5.42-7.27,21.61-14.74,30.43-17.04Z"/>
  <path class="cls-14" d="M322.76,323.63c-.75.82-1.62,1.51-2.43,2.43-8.82,2.3-25,9.77-30.43,17.04-.8-1.08-3.91-1.1-4.87-.81-28.17,8.33.29-5.04,7.71-11.36,2.28-.76,6.5-.16,9.33-1.62q10.75-4.46,21.5-8.93c-.11.12-.7,3.12-.81,3.25Z"/>
  <path class="cls-15" d="M264.33,345.54c-1.68,1.86-8.2,9.32-9.74,9.74-3.47.94-12.79.27-14.61-1.62.74-9.02,19.55-10.5,31.65-17.85-1.36,2.92-5.06,7.26-7.3,9.74Z"/>
  <path class="cls-12" d="M136.94,306.59c.88,1.32,3.64,1.86,1.62,2.43-.26-.07-.58.08-.81,0-2.49-.88-4.46-1.42-5.68-4.06.26-.37,1.55-4.51,2.43-5.27,6.09-5.29-.58,2.4,2.43,6.9Z"/>
  <path class="cls-10" d="M162.09,335.81c-.3,1.58-2.78,1.02-3.25-.81.17.01,1.1-1.89,3.25.81Z"/>
  <g>
    <path class="cls-5" d="M178.32,287.93c.95,1.95,3.08,2.91,4.06,4.87.94,1.88,2.48,7.94,2.43,9.74-5.02-4.28-19.23,2.31-21.91,6.9-3.02,5.17-.92,12.35-4.87,12.58-8.94-4.81-8.57-13.93-5.68-22.72.49-.47,4.59-8.3,8.52-10.55,9.28-5.31,16.48-.88,17.45-.81Z"/>
    <g>
      <path class="cls-19" d="M184.81,302.54c-.19,7.1-4.44,17.26-11.36,20.29-6.14,2.68-9.87,2.17-15.42-.81,3.95-.22,1.85-7.41,4.87-12.58,2.68-4.59,16.89-11.18,21.91-6.9Z"/>
      <path class="cls-20" d="M172.23,306.59c9.53-3.15,1.51,10.7-3.25,8.93-3.72-1.38,2.74-8.76,3.25-8.93Z"/>
    </g>
  </g>
  <g>
    <path class="cls-20" d="M385.24,40.44c4.4,7.43,1,3.28-.41,4.06-5.6,3.08-.83,4.2-10.95,5.68-.16.02-1.36-1.79-2.84-1.62-3.89.45-28.68,17.27-30.02,16.23-.62-.48,1.15-8.64-6.49-2.43-4.54,3.68,2.11,1.82.81,4.06-.23.39-6.5,2.8-8.11,4.06-2.49,1.95-16.21,15.39-13.39,7.71.13-.36,4.82-2.26,4.06-3.25-12.37,1.91,2.79-9.71,7.71-12.58,1.22-.71,1.35,1.78,1.62,1.62,2.12-1.25-.04-1.99.81-2.43,2.36-1.22,5.84-1.45,8.11-2.43.78-.34,1.59-5.27,8.11-3.25,3.54-5.13,7.8-2.37,13.79-4.87,5.3-4.82,12.11-4.87,16.23-10.55h10.95Z"/>
    <path class="cls-12" d="M320.73,69.65c6.78-.13-3.07,7.01-4.46,2.84-.08-.25,4.11-2.83,4.46-2.84Z"/>
    <path class="cls-18" d="M366.98,46.93c6.8-1.26-2.68,4.95-3.65,2.84-.4-.86,3.42-2.8,3.65-2.84Z"/>
  </g>
  <g>
    <path class="cls-18" d="M416.08,7.98c-1.56,3.52,6.42,2.45,8.93,17.04-11.86,6.66-26.29,11.17-39.76,15.42h-10.95c-4.12,5.68-10.93,5.73-16.23,10.55-5.99,2.5-10.25-.26-13.79,4.87-6.52-2.02-7.34,2.91-8.11,3.25-2.28.98-5.75,1.21-8.11,2.43-.85.44,1.31,1.18-.81,2.43-.27.16-.4-2.34-1.62-1.62-4.92,2.87-20.08,14.49-7.71,12.58.76.99-3.93,2.89-4.06,3.25-2.82,7.68,10.9-5.76,13.39-7.71,1.61-1.26,7.89-3.66,8.11-4.06,1.3-2.24-5.35-.37-.81-4.06,7.64-6.2,5.88,1.96,6.49,2.43,1.35,1.05,26.13-15.78,30.02-16.23,1.48-.17,2.68,1.65,2.84,1.62-4.78,5.83-9.07,12.25-12.98,18.66.56-2.43-7.72,1.45-9.74,2.43,2.8-10.91-8.15-.33-10.14-4.87-3.6,8.16-11.72,12.31-17.45,19.07-2.44,2.88-5.49,14.39-10.14,10.14-3.64,5.7-18.94,7.79-22.31,14.61q-3.25-1.22-6.49-2.43c2.48-1.87,3.89-1.93,6.49-4.06,5.9.45,7.04-9.87,2.43-9.74,2.32-2.62,5.49-7.95.81-9.74-.06-1-1.13-.78-.41-1.62,1.69-1.95,24.73-20.91,27.59-22.72.51-.32,2.77-.12,3.25.81.98-3.64,5.73-7.12,8.93-4.87,2.27-4.82,14.72-9.7,22.72-15.42,6.88-4.92,20.73-18.72,27.59-22.72,13.26-7.74,20.11-3.61,23.94-10.55,2.58.13,5.6.24,8.11.81Z"/>
    <path class="cls-20" d="M386.86,24.21c-.11.08-.14,2.48.41,2.43.87-.07.4-3.07-.41-2.43.39-.14,6.24-4.93,2.03.81,26.49-4.73-18.2,13.83-20.29,13.79-6.6-.1,1.27-7.17,2.43-3.25,2.08-5.42,9.91-9.18,15.82-11.36Z"/>
    <path class="cls-18" d="M386.86,24.21c.81-.63,1.28,2.36.41,2.43-.55.05-.51-2.35-.41-2.43Z"/>
  </g>
  <g>
    <path class="cls-18" d="M475.31,296.05c-8.71,13.56-16.23,27.85-23.53,42.2-.76,1.49-2.09,3.23-3.25,4.46,4.7,1.27,20.08-10.36,21.91-10.14-9.24,7.06-4.96,19.67-13.39,28.4-.37.38-.95-3.04-6.9,4.87-.3-5.87-1.53-15.3-8.93-9.74-1.45-5.09-5.71-11.97-9.74-15.42.54-2.35,4.35-1.81,9.33-5.68,5.48-4.26,15.8-19.23,15.82-25.16,4.22-1.83,4.53-4.04,7.3-8.11,1.22-1.79,3.18-3.23,3.25-5.68,6.62-.67,7.71.06,8.11,0Z"/>
    <path class="cls-12" d="M455.43,343.11c3.39-.68-8.29,9.9-8.93,9.74-5.28-1.34,7.21-8.71,8.93-9.74Z"/>
  </g>
  <path class="cls-19" d="M406.34,331.75c-.21.26-2.5-.75-.81,1.62-11.07.69-22.11,7.55-28.4,16.63-2.16,3.12-3,8.78-5.68,7.71.24-4.31.22-8.53-1.62-12.58l8.93-7.71c4.41-1.14,17.87-10.79,21.1-14.61,3.71,2.69,3.77.4,6.9-2.43l14.2-5.27c1.38,3.58-6.86,7.11-14.61,16.63Z"/>
  <path class="cls-17" d="M377.94,382.06q-7.71,2.43-15.42,4.87c1.42-3.43,4.78-6.8,6.49-12.17,1.57,1.68,8.69,6.58,8.93,7.3Z"/>
  <path class="cls-17" d="M433.93,296.05c3.17-1.06-3.89,12.88-4.87,14.61-6.28,11.11-11.23,15.67-22.72,21.1,7.74-9.52,15.98-13.06,14.61-16.63l-14.2,5.27c-3.13,2.84-3.18,5.13-6.9,2.43,1.75-2.07,6.38-9.84,7.3-12.17,9.04-4.81,17.18-10.77,26.78-14.61Z"/>
  <path class="cls-19" d="M309.78,353.66c-10.05,13.72-16.94,6.39-18.26,7.3-3.85,2.67,5.76,2.42,6.09,2.84.18.24-3.14,2.79-4.06,4.46-14.83,7.07-10-1.53-11.77-1.62-10.82,6.98-3.08-3.85,8.11-3.25-.46-2.12,6.55-7.08,9.33-8.93.18-.12,2.06-.2,4.06-1.62l.81,1.62c-1.83,1.19-3.3,2.97-4.87,4.46,3.12,3.22,6.91-4.91,7.3-5.27,3.62-3.36,7.47-5.77,3.25,0Z"/>
  <path class="cls-20" d="M287.87,385.3c-1.32.55-.59,1.54-1.22,1.62-.6.08.07-1.38-1.22-1.62,2.96-5.49,5.14-11.59,8.11-17.04.91-1.67,4.24-4.22,4.06-4.46-.32-.42-9.94-.17-6.09-2.84,1.32-.91,8.2,6.42,18.26-7.3-4.7,12.1-16.31,19.8-21.91,31.65Z"/>
  <g>
    <path class="cls-17" d="M412.02,277.38c-1,12.07-.61,20.85-4.87,32.46-4.44.75-24.78,17.92-26.37,17.85-.55-.02-.43-1.01-.41-1.62,3.02-2.74,4.33-6.49,6.49-9.74,7.9-11.85,12.13-20.54,13.79-34.89,1.03-8.85-.28-16.52.41-17.04,2.73,2.52,10.31,12.43,10.95,12.98Z"/>
    <path class="cls-17" d="M407.15,309.84c-.09.24.09.58,0,.81-.92,2.34-5.55,10.1-7.3,12.17-3.23,3.81-16.68,13.47-21.1,14.61-1.68.43-3.95.83-5.68.81-.68-.76-4.71-1.57-5.68-1.62-2.32-.12-4.83-.62-7.3-.81-.55-2.51,6.41-1.83,10.14-3.25,2-.76,8.47-4.97,10.14-6.49-.03.61-.14,1.6.41,1.62,1.59.07,21.94-17.1,26.37-17.85Z"/>
  </g>
  <g>
    <path class="cls-10" d="M344.67,274.14c-.69-10.91-13.2-.76-15.82-14.61-.56-.08-5.66,8.77-8.52,4.46-.53-.79,6.26-5.02,12.17-14.2,2.9-4.51,5.39-8.79,7.3-13.79,4.57,13.84,7.01,23.31,4.87,38.14Z"/>
    <g>
      <path class="cls-5" d="M331.69,218.15c2.43,3.2,4.88,7.67,6.49,11.36.95,2.17,1.23,5.3,1.62,6.49-1.92,5.01-4.4,9.29-7.3,13.79-18.69,6.4-8.34-6.18-14.2-8.93-1.9-.89-16.77,2.21-26.78-1.62-3.01-.4-20.79,11.12-21.91,12.17-4.35,4.12-4.88,11.19-11.77,14.2,1.59,8.49-9.56,6.37-2.84,14.2.48.56,8.54.38.41,10.95,6.38,12-11.69,18.78-7.3,30.43-4.75-3.59-8.35-8.19-11.77-12.98-1.36,3.71.33,5.98.41,6.49-5.67-.88-6.96,8.1-12.98,6.49,1.05-3.07,1.57-5.9,2.43-8.93,1.54-5.38,5.06-11.14,4.87-14.2-6.73-14.07-8.91-28.79-7.3-44.22.11-1.05-.16-2.22,0-3.25,8.17-51.36,77.1-73.02,107.92-32.46Z"/>
      <path class="cls-21" d="M247.7,290.36c.65.43,1.11,3.17-.81,3.25-2.52.1,0-3.78.81-3.25Z"/>
      <path class="cls-20" d="M255.81,283.87c.09-.07,1.33.82.81,1.62-1.25,1.94-1.85-.89-.81-1.62Z"/>
      <path class="cls-21" d="M245.27,253.04c.09-.07,1.33.82.81,1.62-1.25,1.94-1.85-.89-.81-1.62Z"/>
      <path class="cls-7" d="M298.01,231.13h.81l.41.41v.81l-.41.41-.41-.41-.41-.41-.41-.41.41-.41Z"/>
    </g>
    <path class="cls-15" d="M319.51,278.19c-1.88,9.8,2.2,9.68,4.06,13.79,1.54,3.4,2.79,10.18,5.68,10.55-5.5,5.8-7.21,7.04-13.79,11.36.79-4.96-19.44-.7-21.91-4.87,2.34-4.93-1.89-20.92,4.46-21.91,4.9-.76,11.98,16.46,12.58,10.95.61-5.62-23.43-19.35,8.93-19.88Z"/>
    <path class="cls-20" d="M292.74,303.35c-4.25,1.13-4.55-4.13-6.49-6.49-2.32-2.83-10.26-8.16-7.3-11.77.85-1.04,4.96,1.31,4.06-5.27,4.17,4.22-3.43,6.81-1.22,8.11,4.06.06,7.04-3.36,10.95-.41.36,5.14-.49,10.75,0,15.82Z"/>
    <path class="cls-15" d="M283,279.82c.9,6.59-3.21,4.24-4.06,5.27-2.95,3.61,4.98,8.93,7.3,11.77-24.51-10.13-11.75-11.63-10.55-13.39.91-1.33-.09-3.8,0-4.46,4.54.44,5.12-1.4,7.3.81Z"/>
    <path class="cls-12" d="M335.74,294.42c-2.19,3.28-3.78,5.25-6.49,8.11-2.89-.37-4.14-7.15-5.68-10.55,1.57-2.49,6.75.72,12.17,2.43Z"/>
    <g>
      <path class="cls-12" d="M332.5,249.79c-5.91,9.18-12.7,13.41-12.17,14.2,2.86,4.31,7.96-4.54,8.52-4.46,2.62,13.85,15.13,3.7,15.82,14.61-.21,1.44-.48,2.66-.81,4.06-1.8,7.63-4.11,10.24-8.11,16.23-5.42-1.72-10.6-4.93-12.17-2.43-1.86-4.11-5.94-4-4.06-13.79-.8-2.95-17.58-.2-16.23-6.9.12-.58,4.04-3.59,4.06-4.06.13-3.23-16.34,2.21-20.69,1.22-14.69-14.36,7.62,10.34-11.36,8.11-1.3,1.03.51,1.65.41,2.43-.09.66.91,3.13,0,4.46-1.2,1.76-13.96,3.25,10.55,13.39,1.94,2.36,2.24,7.62,6.49,6.49.28,2.88-.68,5.68.81,5.68,2.47,4.17,22.7-.09,21.91,4.87-16.82,11.05-37.35,18.31-57.61,12.98-.3-.08-4.91-2.06-5.68-2.43-.13-.06-1.8-1.22-2.43-1.62-.1-.06-.29-.62-1.62-1.62-4.39-11.65,13.68-18.43,7.3-30.43,8.14-10.57.07-10.4-.41-10.95-6.72-7.83,4.43-5.71,2.84-14.2,6.89-3.01,7.42-10.08,11.77-14.2,1.11-1.06,18.89-12.57,21.91-12.17,10,3.83,24.88.73,26.78,1.62,5.86,2.74-4.49,15.33,14.2,8.93Z"/>
      <g>
        <path class="cls-7" d="M270.42,309.03c1.73-.25,2.33,3.12.81,3.25-2.42.2-2.39-3.02-.81-3.25Z"/>
        <path class="cls-22" d="M330.47,287.12c.72-.19,3.49,2.45.81,3.25-3.35.99-1.31-3.12-.81-3.25Z"/>
        <path class="cls-16" d="M315.86,244.11c.7-.51,2.63,3.16,1.62,3.25-2.95.25-2.42-2.67-1.62-3.25Z"/>
        <path class="cls-9" d="M261.49,268.46c1.83-1,2.89,1.74,1.62,2.43-1.83,1-2.89-1.74-1.62-2.43Z"/>
        <path class="cls-16" d="M260.68,300.91c3.26-.9.88,5.3-1.22,2.03-.06-.1,1.1-2,1.22-2.03Z"/>
        <path class="cls-9" d="M255,275.76c1.21-.49,1.78,1.23.81,1.62-1.21.49-1.78-1.23-.81-1.62Z"/>
        <path class="cls-20" d="M291.52,243.3c1.03.73.44,3.57-.81,1.62-.51-.8.72-1.69.81-1.62Z"/>
      </g>
    </g>
    <g>
      <path class="cls-9" d="M319.51,278.19c-32.35.53-8.31,14.26-8.93,19.88-.6,5.51-7.68-11.72-12.58-10.95-6.35.99-2.13,16.98-4.46,21.91-1.49,0-.53-2.8-.81-5.68-.49-5.07.36-10.68,0-15.82-3.91-2.95-6.89.46-10.95.41-2.21-1.31,5.39-3.9,1.22-8.11-2.19-2.21-2.76-.38-7.3-.81.1-.79-1.71-1.4-.41-2.43,18.98,2.23-3.33-22.47,11.36-8.11,4.35.99,20.82-4.45,20.69-1.22-.02.46-3.94,3.48-4.06,4.06-1.35,6.7,15.43,3.95,16.23,6.9Z"/>
      <path class="cls-11" d="M288.27,271.7c7.66,2.11,9.57-3.98,11.36,5.68,8.55-1.45-.2,2.25.81,7.3-20.4,1.31-11.02-4.47-11.77-6.09-.31-.66-3.23,1.88-3.25-.81-.02-2.29,6.29,2.09,2.84-6.09Z"/>
    </g>
  </g>
  <path class="cls-18" d="M386.86,316.33c-2.16,3.24-3.48,7-6.49,9.74-1.67,1.52-8.14,5.73-10.14,6.49-3.73,1.42-10.7.73-10.14,3.25-4.56-.36-6.94-.18-11.36,0,.35-.24,3.9-3.77,4.87-4.87,12.64.54,20.85-10.64,33.27-14.61Z"/>
  <path class="cls-16" d="M360.09,335.81c2.47.2,4.98.69,7.3.81-4.45,1.35-20.52,3.37-21.91.81,1.16-.63,2.08-.85,3.25-1.62,4.43-.18,6.81-.36,11.36,0Z"/>
  <path class="cls-16" d="M306.53,353.66c-.39.36-4.19,8.49-7.3,5.27,1.57-1.5,3.04-3.28,4.87-4.46.73-.48,1.47-.99,2.43-.81Z"/>
</svg>