<?xml version="1.0" encoding="UTF-8"?>
<svg id="Capa_1" data-name="Capa 1" xmlns="http://www.w3.org/2000/svg" viewBox="0 0 595.28 841.89">
  <defs>
    <style>
      .cls-1 {
        fill: #c1e5f6;
      }

      .cls-1, .cls-2, .cls-3, .cls-4, .cls-5, .cls-6, .cls-7, .cls-8, .cls-9, .cls-10, .cls-11, .cls-12, .cls-13, .cls-14, .cls-15, .cls-16, .cls-17, .cls-18, .cls-19, .cls-20, .cls-21, .cls-22, .cls-23, .cls-24, .cls-25, .cls-26, .cls-27, .cls-28, .cls-29, .cls-30, .cls-31, .cls-32, .cls-33, .cls-34, .cls-35, .cls-36, .cls-37, .cls-38, .cls-39, .cls-40, .cls-41, .cls-42, .cls-43, .cls-44, .cls-45, .cls-46, .cls-47, .cls-48, .cls-49, .cls-50, .cls-51, .cls-52, .cls-53, .cls-54, .cls-55, .cls-56, .cls-57, .cls-58, .cls-59, .cls-60, .cls-61, .cls-62 {
        stroke-width: 0px;
      }

      .cls-2 {
        fill: #f2b90f;
      }

      .cls-3 {
        fill: #de242d;
      }

      .cls-4 {
        fill: #137177;
      }

      .cls-5 {
        fill: #f0cfd1;
      }

      .cls-6 {
        fill: #25909b;
      }

      .cls-7 {
        fill: #0f222a;
      }

      .cls-8 {
        fill: #f9ccc8;
      }

      .cls-9 {
        fill: #124a5e;
      }

      .cls-10 {
        fill: #0b515b;
      }

      .cls-11 {
        fill: #f49634;
      }

      .cls-12 {
        fill: #30252d;
      }

      .cls-13 {
        fill: #176673;
      }

      .cls-14 {
        fill: #6ec8e0;
      }

      .cls-15 {
        fill: #252124;
      }

      .cls-16 {
        fill: #535248;
      }

      .cls-17 {
        fill: #96d1d0;
      }

      .cls-18 {
        fill: #d18035;
      }

      .cls-19 {
        fill: #881819;
      }

      .cls-20 {
        fill: #f1e03d;
      }

      .cls-21 {
        fill: #454c3f;
      }

      .cls-22 {
        fill: #eee5cf;
      }

      .cls-23 {
        fill: #0fb2c9;
      }

      .cls-24 {
        fill: #174c85;
      }

      .cls-25 {
        fill: #0099b4;
      }

      .cls-26 {
        fill: #3ebbcb;
      }

      .cls-27 {
        fill: #7ccad3;
      }

      .cls-28 {
        fill: #bde2e5;
      }

      .cls-29 {
        fill: #5b3b7e;
      }

      .cls-30 {
        fill: #e9474a;
      }

      .cls-31 {
        fill: #9ad5e8;
      }

      .cls-32 {
        fill: #6c826d;
      }

      .cls-33 {
        fill: #ba870f;
      }

      .cls-34 {
        fill: #053441;
      }

      .cls-35 {
        fill: #2f3038;
      }

      .cls-36 {
        fill: #edc50d;
      }

      .cls-37 {
        fill: #00a6cc;
      }

      .cls-38 {
        fill: #ddd09a;
      }

      .cls-39 {
        fill: #4a8f70;
      }

      .cls-40 {
        fill: #e8d1c1;
      }

      .cls-41 {
        fill: #f6a01b;
      }

      .cls-42 {
        fill: #bb1822;
      }

      .cls-43 {
        fill: #1b7c99;
      }

      .cls-44 {
        fill: #a4a790;
      }

      .cls-45 {
        fill: #ef7917;
      }

      .cls-46 {
        fill: #f4a0a0;
      }

      .cls-47 {
        fill: #af7314;
      }

      .cls-48 {
        fill: #981915;
      }

      .cls-49 {
        fill: #e0d0b5;
      }

      .cls-50 {
        fill: #505b3c;
      }

      .cls-51 {
        fill: #4b0e11;
      }

      .cls-52 {
        fill: #b05a17;
      }

      .cls-53 {
        fill: #fbfbfb;
      }

      .cls-54 {
        fill: #cfd15a;
      }

      .cls-55 {
        fill: #bcc0d1;
      }

      .cls-56 {
        fill: #341b13;
      }

      .cls-57 {
        fill: #717b72;
      }

      .cls-58 {
        fill: #464082;
      }

      .cls-59 {
        fill: #556f68;
      }

      .cls-60 {
        fill: #53885d;
      }

      .cls-61 {
        fill: #d2a914;
      }

      .cls-62 {
        fill: #251716;
      }
    </style>
  </defs>
  <path class="cls-12" d="M303.4,43.07c-1.02-.17-3.16-.17-4.17,0-1.85-57.57,5.92-57.29,4.17,0Z"/>
  <path class="cls-41" d="M348.27,770.78c-.25,4.59,1.35,9.29-1.04,14.64-.19.09-.46,2.64-3.65,2.09-3.66-1.01-5.95-12.91-6.78-16.73q5.74,0,11.48,0Z"/>
  <g>
    <path class="cls-19" d="M476.62,576.31c6.26,13.8,12.74,34.32,15.65,49.14.14.69.68,1.03,1.04,3.14.84,4.82,1.01,3.97,1.04,4.18,4.97,34.13,1.13,77.93-12.52,109.78-4.38-1.36-8.2-3.67-12.52-5.23.85-2.63,2-2.97,2.09-3.14,13.82,20.21,21.17-32.28,16.7-42.35,3.34-8.23,3.42-28.55,3.13-38.69-.02-.69-2.79,3.11-1.04-12.55.08-.75-2.37.14-2.09-2.09.09-.73,5.25.4,3.13-12.55-2.34-14.28-17.36-52.66-25.04-65.87-4.72-8.13-38.54-52.87-46.96-47.05-.55,1.19,1.26,1.73,1.04,2.61-2.37,9.81-2.04,54.94-12.52,81.03,53.33,29.73,72.2,79.67,56.35,138.54-9.11-2.9-19.15-3.99-28.17-7.32,2.68-33.16-17.33-54.41-46.96-64.82,9.29-19.22,10.94-41.04,17.74-61.17,2.5-10.83-13.47-7.61-12.52-15.68,6.77-28.46,10.93-57.29,14.61-86.26,28.84,17.14,54,45.83,67.83,76.33Z"/>
    <path class="cls-51" d="M408.79,499.98c-3.68,28.97-7.84,57.8-14.61,86.26-.95,8.08,15.03,4.85,12.52,15.68-6.8,20.13-8.45,41.95-17.74,61.17-3.13-1.1-6.24-2.12-9.39-3.14.03-.13-2.58.66-2.09-1.57,11.07-50.12,19.59-99.82,27.13-150.56.26-1.74,2.98-7.84,3.13-8.89-.11,1.28.86.94,1.04,1.05Z"/>
    <g>
      <path class="cls-12" d="M464.09,735.23c3.28,1.04,3.96,1.64,5.22,2.09,4.32,1.56,8.14,3.87,12.52,5.23-6.55,15.28-39.75,65.11-51.13,77.37-9.94,10.7-9.9,9.06-12.52,7.32,6.08-10.22,41.04-67.57,41.74-72.67,1.23-8.91-19.72-13.59-26.09-17.25.31-1.67.85-3.89,1.04-5.23.25-1.75.91-2.5,1.04-4.18,9.03,3.33,19.06,4.42,28.17,7.32Z"/>
      <path class="cls-12" d="M418.18,827.24c-2.71-1.8-4.95-5.2-5.22-8.36-.89-10.47,18.02-65.99,20.87-81.55,6.37,3.66,27.31,8.34,26.09,17.25-.7,5.09-35.66,62.44-41.74,72.67Z"/>
    </g>
    <path class="cls-19" d="M471.4,734.19c33.92-66.66,3.85-169.3-51.13-218.52.21-.88-1.6-1.42-1.04-2.61,8.41-5.82,42.23,38.92,46.96,47.05,7.68,13.21,22.71,51.59,25.04,65.87,2.12,12.95-3.04,11.82-3.13,12.55-.28,2.24,2.17,1.35,2.09,2.09-1.75,15.66,1.02,11.85,1.04,12.55.29,10.14.21,30.46-3.13,38.69,4.47,10.07-2.87,62.55-16.7,42.35Z"/>
    <g>
      <path class="cls-3" d="M471.4,734.19c-.09.17-1.24.51-2.09,3.14-1.25-.45-1.94-1.05-5.22-2.09,15.86-58.87-3.02-108.81-56.35-138.54,10.49-26.09,10.16-71.22,12.52-81.03,54.98,49.22,85.05,151.87,51.13,218.52Z"/>
      <path class="cls-51" d="M459.4,613.95c3.61-.91,8.42,4.35,4.17,6.27-5.06,2.29-9.31-4.98-4.17-6.27Z"/>
      <path class="cls-51" d="M422.88,572.12c4.89-1.52,11.72,4.17,3.13,4.18-1.68,0-6.81-3.04-3.13-4.18Z"/>
    </g>
  </g>
  <path class="cls-12" d="M138.53,735.23c9.52,11.24,37.42,81.86,34.43,90.44-.28.8-1.36.53-2.09.52-2.38-1.61-5.34-4.21-7.3-6.27-14.28-15.06-39.3-54.49-48-74.23,2.84-1.07,3.45-2.58,4.17-3.14,1.11-.85,1.96-1.38,3.13-2.09,5.27-1.5,10.48-3.43,15.65-5.23Z"/>
  <path class="cls-12" d="M160.45,730c1.53,18.2,23.4,74.21,22.96,88.87-.27,8.79-5.25,12.23-12.52,7.32.72,0,1.81.28,2.09-.52,2.98-8.58-24.92-79.2-34.43-90.44,7.16-2.48,13.93-5.93,21.91-5.23Z"/>
  <path class="cls-9" d="M179.23,509.39c-1.22,1.04-2.11,5.94-2.09,6.27-53.48,38.84-76.89,107.66-73.04,171.99.7,11.71,7.29,52.81,15.65,54.89-.73.56-1.33,2.07-4.17,3.14-22.66-51.47-20.17-112.85,3.13-164.15,13.84-30.48,33.2-53.38,60.52-72.14Z"/>
  <g>
    <path class="cls-15" d="M222.01,658.91c-3.88,1.33-8.75,1.84-12.52,3.14-.5-10.02-16.41-61.07-12-65.87.99-1.08,8.56-2.81,10.96-4.18,4.27,22.32,8.93,44.66,13.57,66.92Z"/>
    <g>
      <path class="cls-34" d="M193.84,501.03c4.11,30.47,8.83,60.77,14.61,90.96-2.4,1.37-9.96,3.1-10.96,4.18-4.41,4.8,11.5,55.85,12,65.87-32.52,11.18-52.06,32.04-49.04,67.96-7.98-.7-14.75,2.74-21.91,5.23-5.17,1.8-10.38,3.73-15.65,5.23,5.43-3.29,13.32-6.08,13.57-6.8-5.51-17.22-7.6-49.42-3.13-66.39.11-.41,1.27.7,4.17-7.32,9.88-27.28,28.82-52.14,56.35-63.26-2.58-20.13-15.74-64.43-16.7-81.03-.02-.33.87-5.23,2.09-6.27,3.73-2.56,11.13-10.28,14.61-8.36Z"/>
      <path class="cls-10" d="M189.14,515.66c4.03-.47,7.41,7.88,2.09,9.41-6.41,1.84-7.29-8.81-2.09-9.41Z"/>
    </g>
  </g>
  <path class="cls-25" d="M177.14,515.66c.96,16.6,14.12,60.9,16.7,81.03-27.52,11.11-46.47,35.98-56.35,63.26-8.24-4.28-11.48,6.52-4.17,7.32-4.47,16.97-2.38,49.17,3.13,66.39-.25.72-8.14,3.5-13.57,6.8-1.17.71-2.02,1.24-3.13,2.09-8.37-2.08-14.95-43.18-15.65-54.89-3.85-64.33,19.57-133.15,73.04-171.99Z"/>
  <path class="cls-20" d="M137.49,659.95c-2.9,8.01-4.07,6.91-4.17,7.32-7.3-.8-4.06-11.6,4.17-7.32Z"/>
  <path class="cls-17" d="M119.23,691.32c5.27-1.31,5.21,6.95,1.04,7.32-3.35.3-5.23-6.28-1.04-7.32Z"/>
  <path class="cls-27" d="M147.4,573.17c1.93-.27,2.84,5.48,1.04,6.27-1.88.83-4.3-5.82-1.04-6.27Z"/>
  <g>
    <path class="cls-15" d="M380.62,777.05c3.83.17,8.81.18,11.48,2.09-2.9,12.36-3.74,29.88-6.26,38.69-2.8,9.76-7.74,9.72-10.43,0-.79-2.84-6.35-33.51-7.3-39.73.33-1.52,7.22-1.28,12.52-1.05Z"/>
    <g>
      <path class="cls-19" d="M397.31,758.23c-1.24,4.37-1,10.57-1.04,15.16l-1.04,4.18c-1.46,2.18-3.09,1.4-3.13,1.57-2.67-1.91-7.65-1.92-11.48-2.09,4.36-24.69,10.27-67.42-1.04-88.87,17.32,3.85,18.92,55.89,17.74,70.05Z"/>
      <g>
        <path class="cls-3" d="M379.57,688.18c11.32,21.46,5.41,64.18,1.04,88.87-5.3-.23-12.19-.48-12.52,1.05-.02-.12-.61.82-1.04-2.09-2.38-15.82-4.62-33.2-4.17-49.14,0-.11,2.06.33,2.09-.52.16-4.32-.35-8.78,0-13.07,4-3.92,4.23-27.4,14.61-25.09Z"/>
        <path class="cls-46" d="M378.01,692.36c.13,13.61.09,38.39-1.57,50.71-4.99,37.04-12.67-20.62,1.57-50.71Z"/>
      </g>
    </g>
  </g>
  <g>
    <path class="cls-15" d="M212.62,778.1c4.34.22,9.03,1.99,13.57,1.05-2.04,13.18-3.81,26.47-5.22,39.73-.43.1-5.05,4.74-7.83,4.18-1.06-.39-2.19-3.97-2.61-5.23-.1-.31.1-.73,0-1.05,7.26,1.54.14-20.6,2.09-36.07q-4.7-.26-9.39-.52c-.2-.97-.85-1.13-1.04-2.09,5.39,1.11,9.91-.03,10.43,0Z"/>
    <path class="cls-35" d="M210.53,816.79c-1.37-4.55-5.26-26.72-7.3-36.59q4.7.26,9.39.52c-1.94,15.47,5.17,37.61-2.09,36.07Z"/>
    <g>
      <path class="cls-3" d="M216.79,688.18c2.05,12.83.19,84.11-1.04,88.35-.26.89-2,1.9-3.13,1.57-.52-.03-5.05,1.11-10.43,0-1.19-6.03-3.26-11.3-4.17-17.77-4.26-30.06,2.24-76.76,18.78-72.14Z"/>
      <path class="cls-8" d="M212.1,694.45q-3.13,32.41-6.26,64.82c-4.17-20.52-4.64-46.42,6.26-64.82Z"/>
    </g>
  </g>
  <path class="cls-41" d="M258.53,770.78c-3,19.1-5.09,20.27-9.39,1.05,2.46.39,1.97-1.02,2.09-1.05,1.99-.42,5.05.29,7.3,0Z"/>
  <g>
    <path class="cls-40" d="M238.71,166.45c-19.5,64.6-35.14,120.26-37.56,188.72-1.75,49.53,13.74,197.81,22.96,249.89,4,22.58,10.35,44.9,14.61,67.44q-5.22,0-10.43,0c-.16-.76-4.16-3.5-6.26-13.59-4.64-22.25-9.29-44.6-13.57-66.92-5.78-30.19-10.5-60.49-14.61-90.96-3.87-28.69-6.63-57.56-10.43-86.26-1.88-68.9,13.22-154.43,34.43-220.09,3.13-9.69,7.9-18.8,11.48-28.23q4.7,0,9.39,0Z"/>
    <path class="cls-38" d="M345.14,166.45c61.84,176.43,34.07,327.83,1.04,506.05-8.18.09-16.74,2.1-25.04,1.05-.38-33.46,2.54-71.55-11.48-102.46q0-17.25,0-34.5c30.48-7.21,66.5-58.88,12.52-105.6-6.22-5.38-9.61-3.88-10.43-5.75q3.13-30.58,6.26-61.17c51.53-16.14,54.31-100.59-3.13-117.1-.24-8.42,1.3-12.79-2.09-19.87,1.64.07.79-1.57,1.04-2.09,5.62-11.48-.35-43.59,1.04-58.55,10.05-.11,20.23.36,30.26,0Z"/>
    <path class="cls-62" d="M371.23,674.59c-.47,1.18-2.66,8.6-3.13,10.46-7.97.33-16.13-.96-24-1.05-3.1-.03-24.52.39-25.04,1.57q-1.04,22.22-2.09,44.44h-1.04c0-.17-2.1-2.09-2.09-2.61.15-8.04,3.93-16.41,1.04-24.57,1.74-8.8,1.91-21.31,6.26-29.28,8.3,1.05,16.87-.96,25.04-1.05,5-.05,22.19.56,25.04,2.09Z"/>
    <g>
      <path class="cls-34" d="M385.83,196.77c34.72,105.21,37.4,193.48,21.91,302.17-.15,1.04-2.87,7.15-3.13,8.89-7.54,50.74-16.06,100.44-27.13,150.56-.49,2.23,2.12,1.44,2.09,1.57-3.46,15.31-8.01,13.79-8.35,14.64-2.85-1.53-20.04-2.14-25.04-2.09,33.03-178.22,60.79-329.62-1.04-506.05,7.99-.28,21.58-.67,27.13-3.14,4.3,11.13,9.83,22.13,13.57,33.46Z"/>
      <g>
        <path class="cls-9" d="M356.1,646.36c1.89-.81,3.31.68,3.65,2.61,2.37,13.39-13.2,1.47-3.65-2.61Z"/>
        <path class="cls-10" d="M402.01,287.73c3.14-1.36,6.67,5.74,3.13,7.32-4.75,2.12-6.58-5.83-3.13-7.32Z"/>
        <path class="cls-1" d="M382.18,255.32c3.57-.5,4.94,6.83,1.04,7.32-4.01.5-4.61-6.81-1.04-7.32Z"/>
        <path class="cls-6" d="M402.01,481.16c3.1-1.11,5.73,7.45,1.04,7.32-3.09-.09-3.75-6.35-1.04-7.32Z"/>
        <path class="cls-4" d="M411.4,348.37c3.42.02,3.47,5.27,1.04,6.27-4.2,1.73-5.1-6.29-1.04-6.27Z"/>
        <path class="cls-10" d="M384.27,207.22c6.43-1.6,3.78,11.58-1.57,4.71-.15-.2,1.3-4.64,1.57-4.71Z"/>
        <path class="cls-9" d="M361.31,630.68c.64,1.86.92,6.2.52,7.84-2.45,10.09-5.33-4.45-.52-7.84Z"/>
        <path class="cls-31" d="M388.44,544.94c4.4-1.7,4.89,6.46,1.04,6.27-1.45-.07-4.34-5-1.04-6.27Z"/>
        <path class="cls-1" d="M389.49,421.56c4.65-1.66,4.72,4.15,2.09,5.23-3.29,1.35-5.24-4.11-2.09-5.23Z"/>
        <path class="cls-43" d="M387.4,347.33c2.8-.9,4.67,5.34,2.09,6.27-2.17.79-5.7-5.11-2.09-6.27Z"/>
        <path class="cls-43" d="M383.23,471.75c3.01-.74,3.63,5.63,1.04,6.27-3.01.74-3.63-5.63-1.04-6.27Z"/>
        <path class="cls-31" d="M381.14,487.43c3.69-1.65,2.76,7.76,0,7.32-2.75-.44-.54-7.08,0-7.32Z"/>
        <path class="cls-10" d="M372.79,580.49c3.38.47.9,8.67-2.09,6.27-2.16-1.73,1.26-6.39,2.09-6.27Z"/>
        <path class="cls-9" d="M391.57,357.78c3.7-.26,3.95,4.91,1.04,5.23-2.88.32-5.39-4.92-1.04-5.23Z"/>
      </g>
    </g>
    <path class="cls-12" d="M290.88,674.59c-.18,3.49-.91,7.05-1.04,10.46-11.58-3.62-32.98-2.51-45.91-1.05-2.02.23-3.36.68-5.22,1.05-2.54.5-6.52-.36-9.39,0-.62-3.6-.91-11.93-1.04-12.55q5.22,0,10.43,0,24.52-.52,49.04-1.05c.05.22,1.99,1.23,3.13,3.14Z"/>
    <g>
      <path class="cls-19" d="M368.1,685.04c-2.18,8.64-2.41,19.3-3.13,28.23-.35,4.29.16,8.75,0,13.07-.03.86-2.08.42-2.09.52-18.79-3.6-12.57,6.13-14.61,43.91q-5.74,0-11.48,0c-.22-.99-.89-1.13-1.04-2.09,2.17-.39,10.57.75,11.48-.52.88-1.24.65-28.95,0-30.32-.75-1.57-11.52-5.32-12.52.52v-8.36c2.01-.27,3.76-.78,5.74-1.05,1.66-1.66,3.47-38.3,3.65-44.96,7.87.08,16.03,1.38,24,1.05Z"/>
      <path class="cls-19" d="M344.1,684c-.18,6.66-2,43.3-3.65,44.96-1.98.26-3.73.77-5.74,1.05-.1.01-.25-.13-2.09,0-.78.06-7.35-2.78-15.65,0q1.04-22.22,2.09-44.44c.52-1.18,21.94-1.6,25.04-1.57Z"/>
    </g>
    <path class="cls-48" d="M335.75,768.69c-1.64-9.99-.85-20.27-1.04-30.32,1.01-5.85,11.78-2.09,12.52-.52.65,1.37.88,29.08,0,30.32-.9,1.28-9.31.14-11.48.52Z"/>
    <path class="cls-55" d="M264.79,728.96c.05,7.67-.06,15.34,0,23,.04,4.59-.45,10.43,0,14.64q-2.09,0-4.17,0c.96-11.77-.71-25.14,0-37.12.63-1.06,3.02-.31,4.17-.52Z"/>
    <g>
      <path class="cls-22" d="M295.05,166.45c6.61-.03,13.22.07,19.83,0-1.4,14.96,4.57,47.07-1.04,58.55-6.91.74-1.17,1.83-1.04,2.09,3.38,7.08,1.85,11.44,2.09,19.87-66.31-19.06-96.72,59.46-60.52,100.9,15.49,17.73,41.66,23.09,63.65,16.21q-3.13,30.58-6.26,61.17c.82,1.87,4.22.37,10.43,5.75-96.9-36.35-94.93,125.08-12.52,105.6q0,17.25,0,34.5c-4.64-1.55-5.62-1.68-9.39,1.05-10.15,7.32-13.83,94.08-12.52,99.33q-24.52.52-49.04,1.05c-4.26-22.54-10.61-44.86-14.61-67.44-9.22-52.08-24.71-200.36-22.96-249.89,2.42-68.46,18.07-124.12,37.56-188.72,18.78-.06,37.57.08,56.35,0Z"/>
      <g>
        <path class="cls-16" d="M313.84,225c-.26.53.6,2.17-1.04,2.09-.12-.26-5.87-1.35,1.04-2.09Z"/>
        <path class="cls-49" d="M298.71,554.35c4.91-2.46,8.25,7.08,3.13,8.36-4.96,1.25-5.82-7.02-3.13-8.36Z"/>
        <path class="cls-59" d="M237.14,231.27c3.35-1.27,5.22,4.04,2.09,5.23-3.35,1.27-5.22-4.04-2.09-5.23Z"/>
        <path class="cls-49" d="M220.45,360.92c2.29-.02,4,4.28,1.04,5.23-3.03.97-4.32-5.19-1.04-5.23Z"/>
        <path class="cls-44" d="M244.45,369.29c2.76-.68,3.64,4.59,1.04,5.23-2.76.68-3.64-4.59-1.04-5.23Z"/>
        <path class="cls-57" d="M243.4,406.93c3.85-1.25,3.75,3.58,2.09,4.18-3.08,1.11-5.08-3.21-2.09-4.18Z"/>
        <path class="cls-32" d="M263.23,197.81c1.82-1.42,5.35,2.76,3.13,4.18-2.83,1.8-5.27-2.51-3.13-4.18Z"/>
        <path class="cls-21" d="M275.75,568.99c2.04-.49,3.69,3.13,2.09,4.18-3.33,2.19-5.28-3.41-2.09-4.18Z"/>
        <path class="cls-21" d="M308.1,189.45c3.5-.73,3.23,3.28,2.09,4.18-2.2,1.73-5.48-3.47-2.09-4.18Z"/>
      </g>
    </g>
    <path class="cls-5" d="M233.49,721.64c-3.82-5.2-4.04-11.93-6.26-17.77,4.51-.08-.75-17.25,2.09-18.82,2.08,12.09,2.44,24.45,4.17,36.59Z"/>
    <g>
      <path class="cls-19" d="M307.57,46.21c25.97,16.1,53.47,88.06,64.69,117.1-5.55,2.47-19.14,2.85-27.13,3.14-10.03.36-20.21-.11-30.26,0-6.61.07-13.22-.03-19.83,0,0-.69-.29-1.81.52-2.09,6.38-2.23,47.01,2.23,48.52-1.57-7.81-30.01-22.09-57.74-32.35-86.78-2.89-8.18-4.78-21.71-8.35-23.53.57-3.75-.63-6.14,4.17-6.27Z"/>
      <path class="cls-3" d="M303.4,43.07c2.98.49,3.95,3,4.17,3.14-4.81.13-3.6,2.52-4.17,6.27-2.47,16.11-3.17,54.31-4.17,56.98-1.32,3.52-9.41,3.01-10.43,4.18-1.57,1.8-5.59,41.08-8.35,47.05-3.56,1.92-4.45.32-8.35.52q14.09-57.24,28.17-114.49l-1.57-1.57c-8,.03-52.69,98.34-56.87,111.35-.67,2.09-1.94,5.46,1.04,4.71-.47,0-6.92,1.37-9.39.52,12.98-30.97,34.52-82.95,54.26-108.22,3.08-3.94,5.86-9.52,11.48-10.46,1.02-.17,3.15-.17,4.17,0Z"/>
      <g>
        <path class="cls-42" d="M295.05,166.45c-18.78.08-37.57-.06-56.35,0q-4.7,0-9.39,0c1.68-4.42,2.24-10.46,4.17-15.16,11.99-29.14,34.53-73.59,54.26-97.76-19.74,25.26-41.28,77.24-54.26,108.22,2.47.85,8.92-.53,9.39-.52,9.59.1,19.67.5,29.22,0,3.9-.2,4.79,1.39,8.35-.52,2.76-5.97,6.77-45.25,8.35-47.05,1.03-1.17,9.12-.66,10.43-4.18,1-2.67,1.71-40.87,4.17-56.98,3.57,1.81,5.46,15.34,8.35,23.53,10.26,29.04,24.54,56.77,32.35,86.78-1.51,3.8-42.14-.66-48.52,1.57-.81.28-.52,1.4-.52,2.09Z"/>
        <path class="cls-30" d="M297.66,149.72c7.45.6,7.18,9.89,1.04,11.5-12.1,3.18-12.63-12.44-1.04-11.5Z"/>
      </g>
      <g>
        <path class="cls-46" d="M272.1,161.22c-9.55.5-19.62.1-29.22,0-2.98.76-1.72-2.61-1.04-4.71,4.18-13.02,48.87-111.32,56.87-111.35l1.57,1.57q-14.09,57.24-28.17,114.49Z"/>
        <path class="cls-8" d="M268.44,113.12c1.87.55-.71,5.39-1.57,3.66-.72-1.46,1.21-3.77,1.57-3.66Z"/>
      </g>
    </g>
    <g>
      <g>
        <path class="cls-34" d="M309.66,571.08c14.02,30.91,11.1,69,11.48,102.46-4.35,7.96-4.52,20.47-6.26,29.28-3.01,15.24-5.2,34.58-6.26,36.07-3.05,4.28-9.87-4.44-10.43-4.71.59-19,5.78-35.68-8.35-29.28,0-1.66-.03-3.61,0-5.23,11.12-.18,11.17.46,12.52-9.93,1.09-8.37,4.97-110.55,3.13-116.06-1.09-3.27-5.37.2-5.22-1.57,3.78-2.72,4.75-2.6,9.39-1.05Z"/>
        <path class="cls-7" d="M315.92,730c-.38,10.68-2.27,21.26-3.13,31.89-2.06,2.94-12.93-4.56-13.57-1.05q1.57,9.67,3.13,19.34c-.84-.55-11.29-14.23-11.48-15.16-.58-2.84,1.02-6.33,1.04-10.98.03-6.51,1.02-4.96,1.04-5.23q1.04,1.31,2.09,2.61,0-9.15,0-18.3c.14.09.95,0,3.13,1.05.56.27,7.39,8.99,10.43,4.71,1.06-1.49,3.25-20.83,6.26-36.07,2.89,8.16-.89,16.53-1.04,24.57-.01.53,2.09,2.45,2.09,2.61Z"/>
        <path class="cls-25" d="M289.84,699.68c.03-1.39-.04-2.79,0-4.18,6.3,6.57,3.49-4.19,4.17-7.84.16-.85,1.95-.2,2.09-1.05.6-3.67,4.55-70.54,4.17-74.23-.52-5.17-4.06-4.77-5.22-1.05-.94,3.03-3.73,54.69-4.17,63.26-1.14-1.91-3.08-2.92-3.13-3.14-1.31-5.25,2.37-92.01,12.52-99.33-.15,1.77,4.12-1.71,5.22,1.57,1.84,5.5-2.04,107.69-3.13,116.06-1.35,10.4-1.4,9.75-12.52,9.93Z"/>
        <path class="cls-14" d="M289.84,695.5c.09-3.48-.13-6.98,0-10.46.13-3.4.86-6.97,1.04-10.46.44-8.57,3.23-60.23,4.17-63.26,1.16-3.72,4.7-4.12,5.22,1.05.37,3.7-3.58,70.57-4.17,74.23-.14.84-1.93.2-2.09,1.05-.69,3.65,2.13,14.41-4.17,7.84Z"/>
        <path class="cls-37" d="M298.18,734.19c-2.18-1.04-2.99-.96-3.13-1.05-.25-.15-.78.15-1.04,0-2.73-1.55-4.52,1.84-5.22-4.18-.14-1.2,1.06-18.76,1.04-24.05,14.13-6.41,8.94,10.28,8.35,29.28Z"/>
        <path class="cls-28" d="M292.97,748.82c.51-5.76-1.23-10.66,1.04-15.68.26.15.79-.15,1.04,0q0,9.15,0,18.3-1.04-1.31-2.09-2.61Z"/>
      </g>
      <g>
        <path class="cls-11" d="M278.36,801.1q8.61,14.12,17.22,28.23c4.59-7.15,11.67-13.94,16.17-20.91,1.85.22-1.52,6.22-2.09,7.32-1.17,2.25-13.75,26.74-15.13,26.14-3.11-9.31-8.77-17.43-13.04-26.14-2.28-4.64-7.59-13.64-5.22-16.73.86,1.01.81,1.25,2.09,2.09Z"/>
        <path class="cls-24" d="M332.62,730c-.12,11.96-.61,23.8-3.13,35.55-3.96-4.2-16.62,10.03-21.91,15.68-1.99.2-3.5.08-5.22-1.05q-1.57-9.67-3.13-19.34c.63-3.52,11.5,3.99,13.57,1.05.87-10.63,2.76-21.21,3.13-31.89h1.04c8.3-2.78,14.87.06,15.65,0Z"/>
        <path class="cls-58" d="M291.92,754.05c-.02,4.64-1.63,8.13-1.04,10.98.19.93,10.63,14.61,11.48,15.16,1.72,1.13,3.22,1.25,5.22,1.05-2.02,2.16.85,6.07-22.43,21.96-3.73.58-4.33-.48-6.78-2.09-1.28-.84-1.23-1.09-2.09-2.09-4.54-5.33-10.68-24.96-11.48-32.41-.45-4.21.04-10.05,0-14.64q13.57,1.05,27.13,2.09Z"/>
        <path class="cls-24" d="M288.79,728.96c.7,6.03,2.49,2.63,5.22,4.18-2.28,5.02-.54,9.92-1.04,15.68-.02.27-1.01-1.29-1.04,5.23q-13.57-1.05-27.13-2.09c-.06-7.67.05-15.34,0-23,5.19-.97,17.16.71,24,0Z"/>
        <g>
          <path class="cls-29" d="M329.49,765.55c-3.27,15.24-9.39,29.95-17.74,42.87-4.51,6.97-11.58,13.76-16.17,20.91q-8.61-14.12-17.22-28.23c2.45,1.61,3.05,2.67,6.78,2.09,23.28-15.89,20.41-19.79,22.43-21.96,5.29-5.65,17.95-19.88,21.91-15.68Z"/>
          <path class="cls-18" d="M297.66,793.78c3.88-1.3,4.01,5.58,2.09,6.27-2.15.78-5.71-5.06-2.09-6.27Z"/>
        </g>
      </g>
    </g>
    <g>
      <path class="cls-19" d="M289.84,685.04c-.13,3.48.09,6.98,0,10.46-.04,1.39.03,2.79,0,4.18-.03,1.62,0,3.57,0,5.23.01,5.29-1.18,22.85-1.04,24.05-6.84.71-18.81-.97-24,0-1.15.22-3.55-.54-4.17.52-.71,11.97.96,25.35,0,37.12-.11,1.37.16,2.82,0,4.18h-2.09c-2.26.29-5.31-.42-7.3,0q0-20.65,0-41.3c-.64-1.33-4.28-1.23-5.22-1.57-1.63-.59-13.95-3.66-14.61-2.61.25,14.49-.22,29.01-2.09,43.39-1.62,12.5-3.05,9.92-3.13,10.46-4.54.94-9.22-.83-13.57-1.05,1.13.33,2.87-.68,3.13-1.57,1.24-4.24,3.09-75.52,1.04-88.35,8.49,2.37,8.68,11.06,10.43,15.68,2.22,5.84,2.44,12.57,6.26,17.77,5.5,3.59,10.11,2.78,11.48,3.14.32.08.71-.07,1.04,0,.13.03.72,1.96,1.57,2.09.85.13,15.53-.13,17.22-1.57.02-13.85.46-27.58-1.57-41.3-6.23-.55-12.1.29-18.26,1.05-.79.1-1.15-.25-1.04-1.05,12.93-1.47,34.33-2.58,45.91,1.05Z"/>
      <path class="cls-42" d="M238.71,685.04q3.13,19.87,6.26,39.73c-1.37-.35-5.98.46-11.48-3.14-1.73-12.14-2.1-24.5-4.17-36.59,2.87-.36,6.85.5,9.39,0Z"/>
      <path class="cls-46" d="M243.92,684c-.11.8.25,1.14,1.04,1.05-1.17,11.6,3.01,27.76,3.13,38.16,0,.19-1.46,1.69-2.09,1.57-.33-.07-.72.08-1.04,0q-3.13-19.87-6.26-39.73c1.86-.37,3.19-.82,5.22-1.05Z"/>
      <path class="cls-3" d="M246.01,724.78c.62.12,2.09-1.37,2.09-1.57-.12-10.41-4.3-26.56-3.13-38.16,6.16-.76,12.03-1.59,18.26-1.05,2.03,13.72,1.58,27.45,1.57,41.3-1.69,1.44-16.36,1.7-17.22,1.57-.85-.13-1.44-2.06-1.57-2.09Z"/>
    </g>
    <path class="cls-3" d="M251.23,770.78c-.11.02.37,1.44-2.09,1.05-.03-.13-.9.06-2.09-1.57q-.52-21.17-1.04-42.35c.93.34,4.58.24,5.22,1.57q0,20.65,0,41.3Z"/>
    <g>
      <path class="cls-13" d="M314.88,246.96c57.44,16.51,54.66,100.96,3.13,117.1-21.99,6.89-48.16,1.53-63.65-16.21-36.2-41.44-5.79-119.96,60.52-100.9Z"/>
      <path class="cls-25" d="M288.27,249.05c44.74-5.1,79.64,49.17,48.52,89.4-34.92,45.14-105.56,13.51-92.87-48.1,3.91-18.95,25.03-39.1,44.35-41.3Z"/>
      <g>
        <path class="cls-56" d="M291.4,254.27c64.37-5.45,71.88,95.08,10.43,100.37-68.31,5.88-69.82-95.34-10.43-100.37Z"/>
        <path class="cls-3" d="M305.49,259.5c.08,25.09,1.26,56.59-11.48,78.94-2.01,3.53-7.46,4.21-6.26,9.93-14.18-1.9-32.21-16.66-35.48-30.84-3.42-14.83,1-40.6,14.61-45.48-9.17,11.4-13.95,30.27-10.43,44.44,6.87,27.71,7.26-14.08,12.52-27.18,4.78-11.89,28.84-29.99,3.13-21.43,11.11-9.31,18.54-11.92,33.39-8.36Z"/>
        <path class="cls-42" d="M287.75,348.37c-1.2-5.72,4.25-6.41,6.26-9.93,12.74-22.35,11.56-53.85,11.48-78.94,46.07,11.03,40.67,96.68-17.74,88.87Z"/>
        <path class="cls-8" d="M266.88,272.05c.76-.94,3.97-3.14,5.22-4.18,25.71-8.56,1.65,9.54-3.13,21.43-5.26,13.11-5.65,54.9-12.52,27.18-3.51-14.17,1.26-33.04,10.43-44.44Z"/>
      </g>
    </g>
    <g>
      <path class="cls-42" d="M322.18,430.97c53.98,46.72,17.96,98.4-12.52,105.6-82.41,19.48-84.38-141.95,12.52-105.6Z"/>
      <g>
        <path class="cls-2" d="M257.49,473.84c-4.09,21.91,7.12,46.68,30.26,51.23,17.03,3.35,29.73-2.67,40.7-15.68.81-.96,2.35-1.97,3.13-3.14l2.09,2.09c-7.94,12.41-13.77,12.68-16.17,18.82-40.79,22.32-70.57-20.3-63.13-59.6,2.63,1.68-.91,6.92,3.13,6.27Z"/>
        <path class="cls-36" d="M331.57,451.89c-.39,1.26-1.9,2.76-3.13,3.14-23.05-28.66-57.94-16.81-65.74,6.27-.11.31-1.28-.75-2.09,6.27-2.68-.7-2.64,3.63-3.13,6.27-4.05.64-.5-4.59-3.13-6.27,7.23-38.17,50.94-51.13,77.22-15.68Z"/>
        <path class="cls-45" d="M333.66,508.35l-2.09-2.09c12.26-18.33,10.61-34.14-3.13-51.23,1.23-.38,2.74-1.87,3.13-3.14,13.6,18.35,14.5,37.05,2.09,56.46Z"/>
        <path class="cls-33" d="M260.62,467.57c-1.21,10.56.82,20.72,5.22,30.32,4.25,9.29,14.17,20.26,25.04,21.96q-1.57,2.61-3.13,5.23c-23.14-4.55-34.35-29.33-30.26-51.23.49-2.64.45-6.98,3.13-6.27Z"/>
        <path class="cls-52" d="M328.44,455.02c13.74,17.09,15.39,32.9,3.13,51.23-.78,1.17-2.32,2.17-3.13,3.14q-1.57-2.61-3.13-5.23c9.98-14.53,10.29-33.06-1.04-47.05-.46-5.79,2.26-1.51,4.17-2.09Z"/>
        <path class="cls-47" d="M328.44,509.39c-10.96,13.01-23.67,19.03-40.7,15.68q1.57-2.61,3.13-5.23c13.7,2.13,26.75-4.48,34.43-15.68q1.57,2.61,3.13,5.23Z"/>
        <path class="cls-47" d="M328.44,455.02c-1.91.58-4.64-3.7-4.17,2.09-4.81-5.93-13.39-11.2-20.87-12.55-8.32-1.5-9.04-1.01-16.7,1.05-13.63,3.65-11.66,8.47-19.83,14.64-.19.14-3.38.7-4.17,1.05,7.8-23.08,42.69-34.93,65.74-6.27Z"/>
        <path class="cls-61" d="M324.27,457.11c11.34,13.99,11.02,32.52,1.04,47.05-7.69,11.2-20.73,17.82-34.43,15.68-10.88-1.69-20.79-12.67-25.04-21.96h1.04c1.72,6.04,16.51,16.79,22.43,17.77,31.08,5.18,54.55-33.23,31.83-56.46-.82-.83-3.94-4-4.17-4.18-1.52-1.15-1.39-1.1-3.13-2.09-.28-.4-.96-2.01-1.04-2.09-4.38-3.91-10.01-3.6-9.39-6.27,7.48,1.35,16.06,6.62,20.87,12.55Z"/>
        <g>
          <path class="cls-50" d="M266.88,460.25c-3.32,7.62-4.18,16.78-3.13,25.09.3,2.34,2.08,8.45,3.13,10.46.08.67-.15,1.55,0,2.09h-1.04c-4.4-9.61-6.42-19.76-5.22-30.32.8-7.03,1.98-5.96,2.09-6.27.8-.34,3.98-.9,4.17-1.05Z"/>
          <path class="cls-53" d="M286.71,445.61c-.08,1.37.92,1.01,2.09,1.05-.95,1.66-3.67,2.06-5.22,3.14-10.39,7.22-15.57,21.8-17.74,33.46-.18.97-1.07,1.99-2.09,2.09-1.05-8.32-.19-17.48,3.13-25.09,8.17-6.17,6.2-10.99,19.83-14.64Z"/>
          <path class="cls-54" d="M303.4,444.57c-.61,2.68,5.01,2.36,9.39,6.27q-1.57,0-3.13,0c-11.22-5.13-8.66-3.76-20.87-4.18-1.17-.04-2.17.32-2.09-1.05,7.66-2.05,8.38-2.55,16.7-1.05Z"/>
          <path class="cls-23" d="M303.4,492.66c-12.27,16.44-34.18,1.34-19.83,14.64l-3.13,2.09c-3.04-1.9-12.34-11.25-13.57-13.59-1.05-2.01-2.83-8.11-3.13-10.46,1.01-.1,1.91-1.13,2.09-2.09,7.63,12.83,24.3,13.32,37.56,9.41Z"/>
          <path class="cls-4" d="M266.88,497.89c-.15-.54.08-1.42,0-2.09,1.22,2.34,10.53,11.7,13.57,13.59,5.72,3.57,12.38,6.11,19.3,5.23,3.37-.43,3.93-3.05,4.17-3.14,1.98-.72,2.98,1.11,3.13,1.05,1.08-.49-.04-2.55,1.04-3.14,18.11-9.73,26.44-25.3,16.17-44.96-.93-1.78-2.55-3.22-3.13-5.23,22.72,23.24-.74,61.64-31.83,56.46-5.93-.99-20.72-11.73-22.43-17.77Z"/>
          <path class="cls-25" d="M309.66,450.84c.85.39,3.46,1.68,4.17,2.09.91,1.28,1.07,2.56,3.13,2.09.24.18,3.36,3.35,4.17,4.18.59,2.01,2.2,3.45,3.13,5.23-6.05-.45,1.55,6.29-2.09,20.39-3.59,13.93-24.22,28.6-38.61,22.48-14.35-13.29,7.55,1.81,19.83-14.64,12.64-16.94,1.45-41.43-19.83-42.87,1.54-1.07,4.27-1.47,5.22-3.14,12.21.42,9.65-.95,20.87,4.18Z"/>
          <path class="cls-39" d="M312.79,450.84c.09.08.76,1.69,1.04,2.09-.71-.41-3.32-1.7-4.17-2.09q1.57,0,3.13,0Z"/>
          <path class="cls-60" d="M316.97,455.02c-2.06.47-2.22-.82-3.13-2.09,1.74.99,1.61.94,3.13,2.09Z"/>
          <path class="cls-26" d="M303.4,492.66c-13.26,3.91-29.94,3.42-37.56-9.41,2.17-11.66,7.35-26.24,17.74-33.46,21.27,1.43,32.47,25.93,19.83,42.87Z"/>
          <path class="cls-43" d="M324.27,464.43c10.27,19.65,1.94,35.23-16.17,44.96-1.09.58.03,2.65-1.04,3.14-.15.07-1.15-1.76-3.13-1.05-.25.09-.8,2.71-4.17,3.14-6.92.88-13.59-1.66-19.3-5.23l3.13-2.09c14.39,6.12,35.02-8.55,38.61-22.48,3.64-14.1-3.96-20.84,2.09-20.39Z"/>
        </g>
      </g>
    </g>
  </g>
</svg>